<?xml version="1.0" encoding="utf-8"?>
<!-- Generator: Adobe Illustrator 18.1.1, SVG Export Plug-In . SVG Version: 6.00 Build 0)  -->
<!DOCTYPE svg PUBLIC "-//W3C//DTD SVG 1.1//EN" "http://www.w3.org/Graphics/SVG/1.1/DTD/svg11.dtd">
<svg version="1.1" id="Layer_1" xmlns="http://www.w3.org/2000/svg" xmlns:xlink="http://www.w3.org/1999/xlink" x="0px" y="0px"
	 width="130px" height="34px" viewBox="0 0 130 34" enable-background="new 0 0 130 34" xml:space="preserve">
<g>
	<path fill="#FFFFFF" d="M38.3,15.3c0-0.4-0.1-0.7-0.4-1c-0.3-0.2-0.7-0.5-1.1-0.7c-0.4-0.2-0.9-0.4-1.4-0.6c-0.5-0.2-1-0.5-1.4-0.8
		c-0.4-0.3-0.8-0.7-1.1-1.2c-0.3-0.5-0.4-1.1-0.4-1.8c0-0.6,0.1-1.2,0.3-1.7c0.2-0.5,0.5-0.9,0.9-1.2c0.4-0.3,0.9-0.5,1.4-0.7
		c0.5-0.1,1.1-0.2,1.8-0.2c0.8,0,1.5,0.1,2.1,0.2c0.7,0.1,1.2,0.3,1.7,0.6l-0.8,2.1c-0.3-0.2-0.7-0.3-1.2-0.5
		c-0.5-0.1-1.1-0.2-1.8-0.2c-0.6,0-1.1,0.1-1.4,0.4c-0.3,0.2-0.5,0.6-0.5,1c0,0.4,0.1,0.7,0.4,0.9c0.3,0.2,0.7,0.5,1.1,0.7
		c0.4,0.2,0.9,0.4,1.4,0.7c0.5,0.2,1,0.5,1.4,0.8c0.4,0.3,0.8,0.7,1.1,1.2c0.3,0.5,0.4,1,0.4,1.7s-0.1,1.3-0.3,1.8
		c-0.2,0.5-0.6,0.9-1,1.3c-0.4,0.3-0.9,0.6-1.5,0.7c-0.6,0.2-1.2,0.2-1.9,0.2c-0.9,0-1.8-0.1-2.5-0.3s-1.2-0.3-1.6-0.5l0.8-2.2
		c0.1,0.1,0.3,0.2,0.5,0.2c0.2,0.1,0.5,0.2,0.7,0.2c0.3,0.1,0.6,0.1,0.9,0.2c0.3,0,0.6,0.1,0.9,0.1c0.8,0,1.3-0.1,1.7-0.4
		C38.1,16.2,38.3,15.8,38.3,15.3z"/>
	<path fill="#FFFFFF" d="M41,9.5h1.3V7.7L44.7,7v2.4H47v2.1h-2.3v3.6c0,0.6,0.1,1.1,0.2,1.4c0.1,0.3,0.4,0.4,0.7,0.4
		c0.2,0,0.5,0,0.6-0.1c0.2,0,0.4-0.1,0.6-0.2l0.4,1.9c-0.3,0.2-0.7,0.3-1.2,0.4c-0.4,0.1-0.9,0.2-1.4,0.2c-0.9,0-1.5-0.2-1.9-0.7
		c-0.4-0.4-0.6-1.2-0.6-2.2v-4.7H41V9.5z"/>
	<path fill="#FFFFFF" d="M48,10c0.5-0.2,1.1-0.4,1.8-0.5c0.7-0.1,1.4-0.2,2.1-0.2c0.6,0,1.2,0.1,1.6,0.2s0.8,0.4,1,0.7
		c0.3,0.3,0.4,0.6,0.5,1c0.1,0.4,0.2,0.8,0.2,1.3c0,0.5,0,1.1-0.1,1.7c0,0.6-0.1,1.1-0.1,1.6c0,0.5,0,1.1,0,1.6c0,0.5,0.1,1,0.3,1.4
		h-2l-0.4-1.3H53c-0.2,0.4-0.6,0.7-1,1c-0.4,0.3-1,0.4-1.7,0.4c-0.4,0-0.8-0.1-1.2-0.2c-0.3-0.1-0.6-0.3-0.9-0.6
		c-0.2-0.2-0.4-0.5-0.6-0.9c-0.1-0.3-0.2-0.7-0.2-1.1c0-0.6,0.1-1.1,0.4-1.4c0.3-0.4,0.6-0.7,1.1-1c0.5-0.2,1.1-0.4,1.7-0.5
		c0.7-0.1,1.4-0.1,2.2-0.1c0.1-0.7,0-1.2-0.1-1.5c-0.2-0.3-0.6-0.5-1.2-0.5c-0.5,0-1,0-1.5,0.1c-0.5,0.1-1,0.2-1.3,0.4L48,10z
		 M51.1,16.9c0.5,0,0.9-0.1,1.2-0.3c0.3-0.2,0.5-0.5,0.6-0.7v-1.2c-0.4,0-0.8,0-1.1,0c-0.4,0-0.7,0.1-0.9,0.2
		c-0.3,0.1-0.5,0.2-0.7,0.4c-0.2,0.2-0.2,0.4-0.2,0.6c0,0.3,0.1,0.6,0.3,0.8C50.4,16.8,50.7,16.9,51.1,16.9z"/>
	<path fill="#FFFFFF" d="M62,11.7c-0.4-0.1-0.7-0.2-1-0.2c-0.4,0-0.8,0.1-1.1,0.3c-0.3,0.2-0.5,0.5-0.6,0.9v6h-2.4V9.5h1.9l0.3,1.2
		h0.1c0.2-0.5,0.5-0.8,0.9-1.1c0.4-0.2,0.8-0.4,1.3-0.4c0.3,0,0.7,0.1,1.1,0.2L62,11.7z"/>
	<path fill="#FFFFFF" d="M62.5,9.5h1.3V7.7L66.2,7v2.4h2.3v2.1h-2.3v3.6c0,0.6,0.1,1.1,0.2,1.4c0.1,0.3,0.4,0.4,0.7,0.4
		c0.2,0,0.5,0,0.6-0.1c0.2,0,0.4-0.1,0.6-0.2l0.4,1.9c-0.3,0.2-0.7,0.3-1.2,0.4c-0.4,0.1-0.9,0.2-1.4,0.2c-0.9,0-1.5-0.2-1.9-0.7
		c-0.4-0.4-0.6-1.2-0.6-2.2v-4.7h-1.3V9.5z"/>
	<path fill="#FFFFFF" d="M71.8,9.5v5.3c0,0.8,0.1,1.3,0.3,1.6c0.2,0.3,0.5,0.5,1.1,0.5c0.5,0,0.8-0.1,1.1-0.4c0.3-0.3,0.5-0.6,0.7-1
		v-6h2.4V16c0,0.5,0,1,0.1,1.5c0,0.5,0.1,0.9,0.2,1.3h-1.8l-0.4-1.4h-0.1c-0.3,0.5-0.7,0.9-1.2,1.2c-0.5,0.3-1.1,0.5-1.8,0.5
		c-0.5,0-0.9-0.1-1.3-0.2c-0.4-0.1-0.7-0.3-0.9-0.6c-0.2-0.3-0.4-0.7-0.6-1.2c-0.1-0.5-0.2-1.1-0.2-1.8V9.5H71.8z"/>
	<path fill="#FFFFFF" d="M79.1,9.5h1.8l0.3,1.1h0.1c0.3-0.5,0.7-0.8,1.1-1c0.4-0.2,1-0.3,1.6-0.3c1.2,0,2,0.4,2.6,1.1
		c0.6,0.7,0.9,1.9,0.9,3.6c0,0.8-0.1,1.5-0.3,2.2c-0.2,0.6-0.5,1.2-0.8,1.6c-0.4,0.4-0.8,0.8-1.3,1c-0.5,0.2-1.1,0.4-1.8,0.4
		c-0.4,0-0.7,0-1-0.1c-0.2-0.1-0.5-0.1-0.7-0.3v3.8h-2.4V9.5z M83.2,11.3c-0.5,0-0.8,0.1-1.1,0.4c-0.3,0.2-0.5,0.6-0.6,1.1v3.9
		c0.2,0.1,0.4,0.2,0.6,0.3c0.2,0.1,0.5,0.1,0.8,0.1c0.7,0,1.2-0.2,1.6-0.7c0.3-0.5,0.5-1.3,0.5-2.4c0-0.8-0.1-1.5-0.4-1.9
		C84.3,11.5,83.9,11.3,83.2,11.3z"/>
	<path fill="#FFFFFF" d="M100.3,13.3h-4.8v5.5H93V5.7h2.6v5.3h4.8V5.7h2.6v13.1h-2.6V13.3z"/>
	<path fill="#FFFFFF" d="M106.9,9.5v5.3c0,0.8,0.1,1.3,0.3,1.6c0.2,0.3,0.5,0.5,1.1,0.5c0.5,0,0.8-0.1,1.1-0.4
		c0.3-0.3,0.5-0.6,0.7-1v-6h2.4V16c0,0.5,0,1,0.1,1.5c0,0.5,0.1,0.9,0.2,1.3H111l-0.4-1.4h-0.1c-0.3,0.5-0.7,0.9-1.2,1.2
		c-0.5,0.3-1.1,0.5-1.8,0.5c-0.5,0-0.9-0.1-1.3-0.2c-0.4-0.1-0.7-0.3-0.9-0.6c-0.2-0.3-0.4-0.7-0.6-1.2c-0.1-0.5-0.2-1.1-0.2-1.8
		V9.5H106.9z"/>
	<path fill="#FFFFFF" d="M114.2,5.7h2.4v4.5h0.1c0.3-0.3,0.6-0.5,1-0.7c0.4-0.2,0.9-0.3,1.4-0.3c1.1,0,2,0.4,2.6,1.1
		c0.6,0.8,0.9,1.9,0.9,3.5c0,1.7-0.4,3-1.2,3.8c-0.8,0.9-2,1.3-3.4,1.3c-0.8,0-1.5-0.1-2.2-0.2c-0.7-0.1-1.2-0.3-1.5-0.4V5.7z
		 M118.3,11.3c-0.4,0-0.8,0.1-1.1,0.3s-0.5,0.6-0.6,1v4.1c0.2,0.1,0.4,0.2,0.6,0.2c0.2,0,0.5,0.1,0.7,0.1c0.7,0,1.2-0.2,1.5-0.7
		c0.3-0.5,0.5-1.2,0.5-2.3C120,12.2,119.4,11.3,118.3,11.3z"/>
	<path fill="#FFFFFF" d="M127.6,16.2c0-0.2-0.1-0.4-0.3-0.6c-0.2-0.1-0.5-0.3-0.8-0.4c-0.3-0.1-0.7-0.3-1-0.4s-0.7-0.3-1-0.5
		c-0.3-0.2-0.6-0.5-0.8-0.9c-0.2-0.4-0.3-0.8-0.3-1.4c0-0.9,0.3-1.6,0.8-2.1c0.5-0.5,1.3-0.7,2.4-0.7c0.7,0,1.3,0.1,1.9,0.2
		c0.6,0.1,1,0.3,1.3,0.5l-0.5,1.8c-0.3-0.1-0.6-0.2-1.1-0.4c-0.4-0.1-0.9-0.2-1.3-0.2c-0.7,0-1.1,0.3-1.1,0.8c0,0.2,0.1,0.4,0.3,0.5
		c0.2,0.1,0.5,0.3,0.8,0.4c0.3,0.1,0.7,0.2,1,0.4c0.4,0.1,0.7,0.3,1,0.5c0.3,0.2,0.6,0.5,0.8,0.8c0.2,0.3,0.3,0.8,0.3,1.3
		c0,0.9-0.3,1.7-0.9,2.2c-0.6,0.5-1.5,0.8-2.7,0.8c-0.7,0-1.3-0.1-1.9-0.3c-0.6-0.2-1-0.4-1.4-0.6l0.7-1.8c0.3,0.2,0.7,0.3,1.1,0.5
		c0.5,0.2,1,0.2,1.5,0.2c0.4,0,0.6-0.1,0.9-0.2C127.5,16.8,127.6,16.5,127.6,16.2z"/>
	<path fill="#FFFFFF" d="M32.6,24.6h5v1h-3.9v3h3.6v1h-3.6v3.3h4v1h-5V24.6z"/>
	<path fill="#FFFFFF" d="M45.2,24.6h1v6.1c0,0.5-0.1,1-0.2,1.4c-0.1,0.4-0.3,0.7-0.6,1c-0.3,0.3-0.6,0.4-1,0.6
		c-0.4,0.1-0.8,0.2-1.2,0.2c-1.1,0-1.9-0.2-2.4-0.7c-0.5-0.5-0.8-1.2-0.8-2.2v-6.3H41v5.8c0,0.5,0,0.9,0.1,1.2
		c0.1,0.3,0.2,0.6,0.4,0.8s0.4,0.3,0.7,0.4c0.3,0.1,0.6,0.1,1,0.1c0.7,0,1.2-0.2,1.5-0.6c0.3-0.4,0.5-1,0.5-1.9V24.6z"/>
	<path fill="#FFFFFF" d="M48.8,24.7c0.3-0.1,0.7-0.1,1.1-0.1c0.4,0,0.8-0.1,1.2-0.1c0.4,0,0.8,0,1.1,0.1c0.4,0.1,0.7,0.2,1,0.4
		s0.5,0.5,0.7,0.8c0.2,0.3,0.2,0.7,0.2,1.2c0,0.7-0.2,1.3-0.6,1.7c-0.4,0.4-0.9,0.7-1.5,0.9l0.6,0.5l2.3,3.6h-1.3l-2.5-3.9l-1.3-0.2
		v4.1h-1.1V24.7z M51.1,25.4c-0.1,0-0.2,0-0.4,0c-0.1,0-0.2,0-0.4,0c-0.1,0-0.2,0-0.3,0c-0.1,0-0.2,0-0.2,0v3.4h1
		c0.6,0,1.1-0.1,1.5-0.4c0.4-0.3,0.6-0.8,0.6-1.4c0-0.5-0.2-0.9-0.5-1.2C52.2,25.6,51.7,25.4,51.1,25.4z"/>
	<path fill="#FFFFFF" d="M55.9,29.1c0-1.5,0.3-2.7,1-3.5c0.6-0.8,1.6-1.2,2.8-1.2c0.6,0,1.2,0.1,1.7,0.3c0.5,0.2,0.9,0.5,1.2,1
		c0.3,0.4,0.5,0.9,0.7,1.5c0.1,0.6,0.2,1.2,0.2,1.9c0,1.5-0.3,2.7-1,3.5c-0.6,0.8-1.6,1.2-2.8,1.2c-0.6,0-1.2-0.1-1.7-0.3
		c-0.5-0.2-0.9-0.5-1.2-1c-0.3-0.4-0.5-0.9-0.7-1.5C56,30.5,55.9,29.9,55.9,29.1z M57.1,29.1c0,0.5,0.1,1,0.2,1.4
		c0.1,0.5,0.3,0.9,0.5,1.2c0.2,0.3,0.5,0.6,0.8,0.8c0.3,0.2,0.7,0.3,1.2,0.3c0.8,0,1.4-0.3,1.9-0.9c0.5-0.6,0.7-1.6,0.7-2.8
		c0-0.5-0.1-1-0.1-1.4c-0.1-0.5-0.3-0.9-0.5-1.2c-0.2-0.3-0.5-0.6-0.8-0.8c-0.3-0.2-0.7-0.3-1.2-0.3c-0.8,0-1.4,0.3-1.9,0.9
		C57.3,26.9,57.1,27.9,57.1,29.1z"/>
	<path fill="#FFFFFF" d="M65.6,24.7c0.3-0.1,0.7-0.1,1.1-0.2c0.4,0,0.8,0,1.1,0c0.4,0,0.8,0,1.2,0.1c0.4,0.1,0.8,0.2,1.1,0.4
		c0.3,0.2,0.6,0.5,0.8,0.9c0.2,0.4,0.3,0.8,0.3,1.4c0,0.6-0.1,1-0.3,1.4c-0.2,0.4-0.5,0.7-0.8,0.9c-0.3,0.2-0.7,0.4-1.1,0.5
		c-0.4,0.1-0.9,0.2-1.3,0.2c0,0-0.1,0-0.2,0s-0.2,0-0.3,0c-0.1,0-0.2,0-0.3,0c-0.1,0-0.2,0-0.2,0v3.5h-1.1V24.7z M67.8,25.4
		c-0.2,0-0.4,0-0.7,0c-0.2,0-0.4,0-0.5,0.1v3.8c0,0,0.1,0,0.2,0c0.1,0,0.2,0,0.3,0c0.1,0,0.2,0,0.3,0c0.1,0,0.2,0,0.2,0
		c0.3,0,0.6,0,0.9-0.1c0.3-0.1,0.6-0.2,0.8-0.3c0.2-0.1,0.4-0.4,0.6-0.6s0.2-0.6,0.2-1c0-0.4-0.1-0.7-0.2-0.9
		c-0.1-0.2-0.3-0.4-0.5-0.6c-0.2-0.1-0.5-0.2-0.8-0.3C68.4,25.4,68.1,25.4,67.8,25.4z"/>
	<path fill="#FFFFFF" d="M73.2,24.6h5v1h-3.9v3h3.6v1h-3.6v3.3h4v1h-5V24.6z"/>
</g>
<g>
	<g>
		<path fill="#FFCC00" d="M6.7,26.5c-0.3,0-0.6-0.1-0.7-0.4c-0.3-0.4-0.2-1,0.2-1.3l7.1-5.3c0.3-0.2,0.8-0.2,1.1,0l6.6,4.8l-2.5-7.7
			c-0.1-0.4,0-0.8,0.3-1l6.6-4.8h-8.1c-0.4,0-0.8-0.3-0.9-0.6l-2.5-7.7l-2.5,7.7c-0.1,0.4-0.5,0.6-0.9,0.6H2.3l6.6,4.8
			c0.3,0.2,0.5,0.7,0.3,1l-2,6C7,23.1,6.5,23.4,6,23.2c-0.5-0.2-0.8-0.7-0.6-1.2l1.8-5.4l-6.5-4.7c-0.6-0.4-0.8-1.2-0.6-1.9
			c0.2-0.7,0.9-1.2,1.6-1.2h8l2.5-7.6c0.2-0.7,0.9-1.2,1.6-1.2c0.7,0,1.4,0.5,1.6,1.2l2.5,7.6h8c0.7,0,1.4,0.5,1.6,1.2
			c0.2,0.7,0,1.4-0.6,1.9l-6.5,4.7l2.5,7.6c0.2,0.7,0,1.4-0.6,1.9c-0.6,0.4-1.4,0.4-2,0l-6.5-4.7l-6.5,4.9
			C7.1,26.4,6.9,26.5,6.7,26.5z"/>
	</g>
	<g>
		<path fill="#FFCC00" d="M14,33.9c-0.5,0-1,0-1.5-0.1c-0.8-0.2-1.8-0.4-2.4-1.1c-0.4-0.4-0.5-1-0.4-1.6c0.1-0.5,0.4-0.8,0.9-1
			c0.7-0.3,1.4-0.5,2.1-0.7H9c-0.4,0-0.7-0.3-0.8-0.6c-0.1-0.4,0.1-0.7,0.5-0.9l4.2-1.6H6.7c-0.4,0-0.8-0.3-0.8-0.8
			c0-0.4,0.3-0.8,0.8-0.8h10.5c0.4,0,0.7,0.3,0.8,0.6c0.1,0.4-0.1,0.7-0.5,0.9l-4.2,1.6h5.3c0.4,0,0.7,0.3,0.8,0.7
			c0.1,0.4-0.2,0.7-0.6,0.9l-3,0.8c-0.5,0.1-1.1,0.3-1.6,0.4c-1,0.2-2,0.5-2.9,0.8c0,0,0,0.1,0.1,0.1c0.3,0.3,1.1,0.5,1.5,0.6
			c2.7,0.5,4-0.8,4-0.8c0.3-0.3,0.8-0.3,1.1,0c0.3,0.3,0.3,0.8,0,1.1C17.9,32.5,16.6,33.9,14,33.9z"/>
	</g>
</g>
</svg>
