<?xml version="1.0" encoding="utf-8"?>
<!-- Generator: Adobe Illustrator 18.1.1, SVG Export Plug-In . SVG Version: 6.00 Build 0)  -->
<!DOCTYPE svg PUBLIC "-//W3C//DTD SVG 1.1//EN" "http://www.w3.org/Graphics/SVG/1.1/DTD/svg11.dtd">
<svg version="1.1" id="Layer_1" xmlns="http://www.w3.org/2000/svg" xmlns:xlink="http://www.w3.org/1999/xlink" x="0px" y="0px"
	 width="130px" height="34px" viewBox="0 0 130 34" enable-background="new 0 0 130 34" xml:space="preserve">
<g>
	<path fill="#FFFFFF" d="M49.7,16.7c-0.4,0.3-1,0.5-1.6,0.6c-0.7,0.1-1.3,0.2-2,0.2c-0.8,0-1.6-0.1-2.4-0.4s-1.4-0.7-2-1.2
		c-0.6-0.6-1-1.3-1.4-2.2c-0.3-0.9-0.5-2-0.5-3.3c0-1.4,0.2-2.5,0.6-3.4c0.4-0.9,0.9-1.7,1.5-2.2c0.6-0.6,1.3-1,2-1.2
		c0.7-0.2,1.5-0.4,2.2-0.4c0.8,0,1.5,0.1,2,0.2c0.5,0.1,1,0.2,1.4,0.4L49,6c-0.3-0.1-0.7-0.3-1.1-0.3S47,5.6,46.4,5.6
		c-1.1,0-2,0.4-2.6,1.2c-0.7,0.8-1,2-1,3.6c0,0.7,0.1,1.4,0.2,2c0.2,0.6,0.4,1.1,0.7,1.5c0.3,0.4,0.7,0.7,1.2,1
		c0.5,0.2,1,0.3,1.7,0.3c0.6,0,1.1-0.1,1.5-0.2c0.4-0.1,0.8-0.3,1.1-0.5L49.7,16.7z"/>
	<path fill="#FFFFFF" d="M50.6,8c0.5-0.2,1.2-0.4,1.9-0.6c0.7-0.1,1.5-0.2,2.3-0.2c0.7,0,1.3,0.1,1.7,0.2c0.5,0.2,0.8,0.4,1.1,0.7
		c0.3,0.3,0.5,0.7,0.6,1.1c0.1,0.4,0.2,0.9,0.2,1.4c0,0.6,0,1.2-0.1,1.8c0,0.6-0.1,1.2-0.1,1.7c0,0.6,0,1.1,0,1.7
		c0,0.5,0.1,1,0.3,1.5h-2.1L56,16h-0.1c-0.3,0.4-0.6,0.8-1.1,1.1c-0.5,0.3-1.1,0.4-1.8,0.4c-0.5,0-0.9-0.1-1.2-0.2
		c-0.4-0.1-0.7-0.3-1-0.6c-0.3-0.3-0.5-0.6-0.6-0.9C50,15.4,50,15,50,14.6c0-0.6,0.1-1.1,0.4-1.5c0.3-0.4,0.7-0.8,1.2-1
		c0.5-0.3,1.1-0.4,1.8-0.5c0.7-0.1,1.5-0.1,2.4-0.1c0.1-0.7,0-1.3-0.2-1.6c-0.2-0.3-0.6-0.5-1.3-0.5c-0.5,0-1.1,0.1-1.6,0.2
		c-0.6,0.1-1,0.2-1.4,0.4L50.6,8z M53.8,15.3c0.5,0,0.9-0.1,1.2-0.3c0.3-0.2,0.5-0.5,0.7-0.7V13c-0.4,0-0.8,0-1.2,0
		c-0.4,0-0.7,0.1-1,0.2c-0.3,0.1-0.5,0.2-0.7,0.4c-0.2,0.2-0.3,0.4-0.3,0.7c0,0.4,0.1,0.7,0.3,0.9C53.2,15.2,53.5,15.3,53.8,15.3z"
		/>
	<path fill="#FFFFFF" d="M65.6,17.3v-5.4c0-0.9-0.1-1.6-0.3-1.9c-0.2-0.4-0.5-0.6-1.1-0.6c-0.4,0-0.8,0.1-1.1,0.4
		c-0.3,0.2-0.5,0.6-0.6,0.9v6.6H60V7.4h2l0.3,1.3h0.1c0.3-0.4,0.7-0.8,1.2-1.1c0.5-0.3,1.1-0.5,1.8-0.5c0.6,0,1.2,0.1,1.6,0.4
		c0.4,0.3,0.7,0.7,0.9,1.3c0.3-0.5,0.7-0.9,1.2-1.2c0.5-0.3,1.1-0.5,1.7-0.5c0.6,0,1,0.1,1.4,0.2c0.4,0.1,0.7,0.4,1,0.7
		c0.2,0.3,0.4,0.8,0.5,1.3c0.1,0.5,0.2,1.2,0.2,2.1v5.9h-2.6v-5.6c0-0.8-0.1-1.4-0.2-1.8c-0.2-0.4-0.5-0.6-1.1-0.6
		c-0.5,0-0.8,0.1-1.1,0.4c-0.3,0.3-0.5,0.6-0.6,1v6.5H65.6z"/>
	<path fill="#FFFFFF" d="M75.4,3.4H78v4.8h0.1c0.3-0.3,0.6-0.6,1.1-0.8c0.4-0.2,0.9-0.3,1.4-0.3c1.2,0,2.1,0.4,2.7,1.2
		c0.6,0.8,0.9,2.1,0.9,3.7c0,1.8-0.4,3.1-1.3,4.1c-0.9,0.9-2.1,1.4-3.6,1.4c-0.8,0-1.6-0.1-2.3-0.2c-0.7-0.1-1.2-0.3-1.6-0.5V3.4z
		 M79.8,9.3c-0.5,0-0.9,0.1-1.2,0.4s-0.5,0.6-0.7,1.1v4.3c0.2,0.1,0.4,0.2,0.7,0.2c0.2,0,0.5,0.1,0.8,0.1c0.7,0,1.2-0.3,1.6-0.8
		c0.4-0.5,0.5-1.3,0.5-2.4C81.6,10.3,81,9.3,79.8,9.3z"/>
	<path fill="#FFFFFF" d="M91,9.8c-0.4-0.1-0.8-0.2-1.1-0.2c-0.5,0-0.8,0.1-1.2,0.4c-0.3,0.2-0.5,0.6-0.6,0.9v6.4h-2.6V7.4h2l0.3,1.3
		h0.1c0.2-0.5,0.5-0.9,0.9-1.1c0.4-0.3,0.8-0.4,1.3-0.4c0.3,0,0.7,0.1,1.2,0.2L91,9.8z"/>
	<path fill="#FFFFFF" d="M91.9,4.6c0-0.4,0.1-0.7,0.4-1c0.3-0.3,0.7-0.4,1.2-0.4c0.5,0,0.9,0.1,1.2,0.4c0.3,0.3,0.5,0.6,0.5,1
		s-0.2,0.7-0.5,1c-0.3,0.3-0.7,0.4-1.2,0.4c-0.5,0-0.9-0.1-1.2-0.4C92,5.3,91.9,5,91.9,4.6z M92.3,7.4h2.6v9.9h-2.6V7.4z"/>
	<path fill="#FFFFFF" d="M105.3,13.8c0,0.6,0,1.1,0,1.7c0,0.6,0.1,1.2,0.2,1.8h-1.8l-0.4-1.3h-0.1c-0.3,0.5-0.6,0.8-1.1,1.1
		c-0.5,0.3-1.1,0.4-1.8,0.4c-1.2,0-2.2-0.4-2.9-1.2c-0.7-0.8-1-2.1-1-3.8c0-1.7,0.4-3,1.1-3.9c0.8-0.9,1.9-1.4,3.4-1.4
		c0.4,0,0.7,0,1,0.1c0.3,0,0.5,0.1,0.8,0.2v-4h2.6V13.8z M100.9,15.4c0.5,0,0.9-0.1,1.2-0.4c0.3-0.2,0.5-0.6,0.6-1.1V9.8
		c-0.2-0.1-0.4-0.3-0.6-0.3c-0.2-0.1-0.5-0.1-0.9-0.1c-0.7,0-1.3,0.2-1.6,0.7c-0.4,0.5-0.5,1.3-0.5,2.5c0,0.8,0.1,1.5,0.4,2
		C99.8,15.1,100.2,15.4,100.9,15.4z"/>
	<path fill="#FFFFFF" d="M115.4,17.3c0,1.4-0.4,2.5-1.2,3.2c-0.8,0.7-1.9,1-3.3,1c-1,0-1.7-0.1-2.2-0.2c-0.5-0.1-1-0.3-1.2-0.4
		l0.5-2c0.3,0.1,0.7,0.2,1.1,0.4c0.4,0.1,0.9,0.2,1.5,0.2c0.9,0,1.5-0.2,1.8-0.6c0.3-0.4,0.5-0.9,0.5-1.6v-0.6h-0.1
		c-0.5,0.6-1.3,0.9-2.5,0.9c-1.3,0-2.2-0.4-2.9-1.2c-0.6-0.8-0.9-2-0.9-3.7c0-1.8,0.4-3.1,1.3-4c0.8-0.9,2.1-1.4,3.7-1.4
		c0.8,0,1.6,0.1,2.3,0.2c0.7,0.1,1.2,0.3,1.6,0.4V17.3z M111.1,15.4c0.5,0,0.9-0.1,1.2-0.3c0.3-0.2,0.5-0.6,0.6-1V9.6
		c-0.4-0.2-0.9-0.3-1.5-0.3c-0.7,0-1.2,0.2-1.5,0.7c-0.4,0.5-0.6,1.3-0.6,2.4c0,1,0.2,1.7,0.5,2.2C110,15.1,110.5,15.4,111.1,15.4z"
		/>
	<path fill="#FFFFFF" d="M125.1,16.5c-0.4,0.3-0.9,0.6-1.6,0.8c-0.7,0.2-1.4,0.3-2.2,0.3c-1.6,0-2.8-0.5-3.5-1.4
		c-0.7-0.9-1.1-2.2-1.1-3.8c0-1.7,0.4-3.1,1.2-3.9c0.8-0.9,2-1.3,3.5-1.3c0.5,0,1,0.1,1.5,0.2c0.5,0.1,0.9,0.4,1.3,0.7
		c0.4,0.3,0.7,0.7,0.9,1.2c0.2,0.5,0.3,1.2,0.3,1.9c0,0.3,0,0.6,0,0.9c0,0.3-0.1,0.6-0.1,1h-5.9c0,0.8,0.3,1.5,0.6,1.9
		c0.4,0.4,1,0.6,1.9,0.6c0.5,0,1-0.1,1.5-0.2c0.4-0.2,0.8-0.3,1-0.5L125.1,16.5z M121.4,9.2c-0.7,0-1.2,0.2-1.5,0.6
		c-0.3,0.4-0.5,0.9-0.6,1.6h3.7c0.1-0.7-0.1-1.3-0.3-1.6C122.4,9.4,122,9.2,121.4,9.2z"/>
	<path fill="#FFFFFF" d="M46.5,32.8c-0.3,0.2-0.6,0.4-1.1,0.4c-0.4,0.1-0.9,0.1-1.4,0.1c-0.6,0-1.1-0.1-1.6-0.3
		c-0.5-0.2-1-0.5-1.3-0.9c-0.4-0.4-0.7-0.9-0.9-1.6s-0.3-1.4-0.3-2.3c0-0.9,0.1-1.7,0.4-2.3c0.2-0.6,0.6-1.2,1-1.6
		c0.4-0.4,0.9-0.7,1.4-0.9c0.5-0.2,1-0.3,1.5-0.3c0.6,0,1,0,1.4,0.1c0.4,0.1,0.7,0.1,0.9,0.2l-0.3,1c-0.4-0.2-1.1-0.3-1.9-0.3
		c-0.4,0-0.8,0.1-1.1,0.2c-0.4,0.1-0.7,0.4-1,0.7c-0.3,0.3-0.5,0.7-0.7,1.2c-0.2,0.5-0.3,1.1-0.3,1.9c0,0.7,0.1,1.2,0.2,1.7
		c0.2,0.5,0.4,0.9,0.7,1.2c0.3,0.3,0.6,0.6,1,0.7c0.4,0.2,0.8,0.3,1.3,0.3c0.4,0,0.8,0,1.1-0.1c0.3-0.1,0.6-0.2,0.8-0.3L46.5,32.8z"
		/>
	<path fill="#FFFFFF" d="M54.3,33.2h-5.7v-9.7h1.2v8.7h4.6V33.2z"/>
	<path fill="#FFFFFF" d="M61.7,23.4h1.1v6.5c0,0.6-0.1,1.1-0.2,1.5c-0.2,0.4-0.4,0.8-0.7,1c-0.3,0.3-0.6,0.5-1,0.6s-0.8,0.2-1.3,0.2
		c-1.1,0-2-0.3-2.6-0.8c-0.6-0.5-0.9-1.3-0.9-2.4v-6.7h1.2v6.2c0,0.5,0,0.9,0.1,1.2c0.1,0.3,0.2,0.6,0.4,0.8
		c0.2,0.2,0.4,0.4,0.7,0.5c0.3,0.1,0.6,0.1,1,0.1c0.7,0,1.3-0.2,1.6-0.6c0.3-0.4,0.5-1.1,0.5-2V23.4z"/>
	<path fill="#FFFFFF" d="M69.9,30.7c0-0.4-0.1-0.7-0.3-1c-0.2-0.2-0.5-0.5-0.9-0.7c-0.3-0.2-0.7-0.4-1.1-0.5
		c-0.4-0.2-0.8-0.4-1.1-0.6c-0.3-0.2-0.6-0.5-0.9-0.9c-0.2-0.3-0.3-0.8-0.3-1.3c0-0.8,0.3-1.4,0.8-1.8c0.5-0.4,1.3-0.7,2.2-0.7
		c0.6,0,1.1,0,1.5,0.1c0.5,0.1,0.8,0.2,1.1,0.3l-0.3,1c-0.2-0.1-0.5-0.2-0.9-0.3c-0.4-0.1-0.9-0.1-1.4-0.1c-0.6,0-1.1,0.1-1.4,0.4
		c-0.3,0.3-0.5,0.6-0.5,1c0,0.4,0.1,0.7,0.3,0.9c0.2,0.2,0.5,0.5,0.9,0.6c0.3,0.2,0.7,0.4,1.1,0.6c0.4,0.2,0.8,0.4,1.1,0.6
		c0.3,0.2,0.6,0.5,0.9,0.9c0.2,0.3,0.3,0.8,0.3,1.3c0,0.4-0.1,0.8-0.2,1.1c-0.1,0.3-0.4,0.6-0.7,0.9c-0.3,0.2-0.6,0.4-1,0.6
		c-0.4,0.1-0.9,0.2-1.4,0.2c-0.7,0-1.3-0.1-1.7-0.2c-0.5-0.1-0.8-0.2-1.1-0.4l0.4-1c0.2,0.1,0.5,0.2,0.9,0.3
		c0.4,0.1,0.9,0.2,1.4,0.2c0.3,0,0.6,0,0.9-0.1c0.3-0.1,0.5-0.2,0.7-0.3c0.2-0.1,0.3-0.3,0.5-0.5C69.8,31.2,69.9,31,69.9,30.7z"/>
	<path fill="#FFFFFF" d="M79.5,24.5h-3v8.7h-1.2v-8.7h-3v-1h7.2V24.5z"/>
	<path fill="#FFFFFF" d="M81.3,23.4h5.3v1h-4.1v3.2h3.8v1h-3.8v3.5h4.2v1h-5.4V23.4z"/>
	<path fill="#FFFFFF" d="M89,23.5c0.4-0.1,0.8-0.1,1.2-0.2c0.5,0,0.9-0.1,1.3-0.1c0.4,0,0.8,0,1.2,0.1c0.4,0.1,0.7,0.2,1,0.5
		c0.3,0.2,0.5,0.5,0.7,0.8c0.2,0.3,0.3,0.8,0.3,1.2c0,0.8-0.2,1.4-0.6,1.8c-0.4,0.5-0.9,0.8-1.6,0.9l0.7,0.5l2.4,3.8h-1.3L91.6,29
		l-1.4-0.2v4.4H89V23.5z M91.5,24.3c-0.1,0-0.2,0-0.4,0c-0.1,0-0.3,0-0.4,0c-0.1,0-0.2,0-0.3,0c-0.1,0-0.2,0-0.3,0V28h1.1
		c0.6,0,1.2-0.2,1.6-0.5c0.4-0.3,0.6-0.8,0.6-1.5c0-0.5-0.2-0.9-0.5-1.2C92.6,24.5,92.1,24.3,91.5,24.3z"/>
	<path fill="#FFFFFF" d="M110.9,26.6l0.1-1.5H111l-0.5,1.3l-2.5,4.4h-0.3l-2.7-4.4l-0.5-1.3h-0.1l0.2,1.4v6.5h-1.1v-9.7h0.9l3,5
		l0.5,1.1h0l0.4-1.1l2.9-4.9h0.9v9.7h-1.2V26.6z"/>
	<path fill="#FFFFFF" d="M119.4,30.5h-3.6l-1,2.7h-1.2l3.7-9.9h0.5l3.7,9.9h-1.2L119.4,30.5z M116.2,29.5h2.8l-1.1-3l-0.3-1.5h0
		l-0.3,1.5L116.2,29.5z"/>
	<path fill="#FFFFFF" d="M123.2,23.5c0.4-0.1,0.7-0.1,1.1-0.2c0.4,0,0.8,0,1.2,0c0.4,0,0.9,0,1.3,0.1c0.4,0.1,0.8,0.2,1.2,0.5
		c0.4,0.2,0.7,0.5,0.9,0.9c0.2,0.4,0.3,0.9,0.3,1.5c0,0.6-0.1,1.1-0.3,1.5c-0.2,0.4-0.5,0.7-0.8,1c-0.4,0.3-0.8,0.4-1.2,0.5
		c-0.5,0.1-0.9,0.2-1.4,0.2c0,0-0.1,0-0.2,0c-0.1,0-0.2,0-0.3,0c-0.1,0-0.2,0-0.3,0c-0.1,0-0.2,0-0.2,0v3.7h-1.2V23.5z M125.6,24.3
		c-0.2,0-0.5,0-0.7,0c-0.2,0-0.4,0-0.5,0.1v4c0,0,0.1,0,0.2,0c0.1,0,0.2,0,0.3,0c0.1,0,0.2,0,0.3,0c0.1,0,0.2,0,0.2,0
		c0.3,0,0.6,0,0.9-0.1c0.3-0.1,0.6-0.2,0.8-0.3c0.2-0.2,0.5-0.4,0.6-0.7c0.2-0.3,0.2-0.7,0.2-1.1c0-0.4-0.1-0.7-0.2-1
		c-0.1-0.3-0.3-0.5-0.6-0.6c-0.2-0.2-0.5-0.3-0.8-0.3C126.2,24.4,125.9,24.3,125.6,24.3z"/>
</g>
<g>
	<g>
		<path fill="#A50F15" d="M8.6,31.4C3.9,28.3,0.7,23,0.7,17c0-9.4,7.6-17,17-17s17,7.6,17,17c0,6-3.2,11.4-7.9,14.4"/>
	</g>
	<path fill="#FFFFFF" d="M22.2,33.4c1.7-0.5,3.2-1.1,4.6-2v-3.3l-0.6-0.6v-3L26,24.2h0l-0.2-12.8l-0.4-0.4V9.1l-1-1.8V6.6h-0.2V5.9
		h0.2V5.8h-0.2V5.5H24v0.2h-0.2v0.2H24v0.6h-0.2v0.8l-1,1.8v1.9l-0.4,0.4l-0.1,7.1l-0.1,0.1l-0.2-0.1v-1.3c0-0.4-0.6-0.8-0.6-0.8
		s-0.6,0.5-0.6,0.8v0.9l-0.6-0.2v-1.4c0-0.4-0.6-0.8-0.6-0.8s-0.6,0.5-0.6,0.8v1l-0.9-0.3v-1.4c0-0.4-0.6-0.8-0.6-0.8
		s-0.6,0.5-0.6,0.8v1.4l-0.6,0.2v-0.9c0-0.4-0.6-0.8-0.6-0.8s-0.6,0.5-0.6,0.8v1.3L15,18v-0.7c0-0.4-0.6-0.8-0.6-0.8
		s-0.6,0.5-0.6,0.8v1.2l-0.3,0.1l-0.4-0.4l-0.1-6.7l-0.4-0.4V9.1l-1-1.8V6.6h-0.2V5.9h0.2V5.8h-0.2V5.5h-0.2v0.2H11v0.2h0.2v0.6
		h-0.2v0.8l-1,1.8v1.9l-0.4,0.4L9.5,24.2l-0.3,0.3v3l-0.6,0.6v3.3c1.4,0.9,3,1.6,4.6,2 M18.3,21.2h-1.1v-1.4c0-0.4,0.6-0.8,0.6-0.8
		s0.6,0.5,0.6,0.8V21.2z"/>
	<path fill="#28828A" d="M17.7,22.9c0,0-4.5,1.7-4.5,4.8v5.7c1.4,0.4,2.9,0.6,4.5,0.6c1.5,0,3-0.2,4.5-0.6v-5.7
		C22.2,24.6,17.7,22.9,17.7,22.9z"/>
</g>
</svg>
