<?xml version="1.0" encoding="utf-8"?>
<!-- Generator: Adobe Illustrator 18.1.1, SVG Export Plug-In . SVG Version: 6.00 Build 0)  -->
<!DOCTYPE svg PUBLIC "-//W3C//DTD SVG 1.1//EN" "http://www.w3.org/Graphics/SVG/1.1/DTD/svg11.dtd">
<svg version="1.1" id="Layer_1" xmlns="http://www.w3.org/2000/svg" xmlns:xlink="http://www.w3.org/1999/xlink" x="0px" y="0px"
	 width="123px" height="34px" viewBox="-858 1070.9 123 34" enable-background="new -858 1070.9 123 34" xml:space="preserve">
<g>
	<path fill="#FFFFFF" d="M-807,1073.6h-4.6v13h-3.1v-13h-4.6v-2.8h12.3V1073.6z"/>
	<path fill="#FFFFFF" d="M-799.9,1085.7c-0.5,0.4-1.1,0.7-1.8,0.9c-0.8,0.2-1.6,0.4-2.5,0.4c-1.8,0-3.1-0.5-4-1.6
		c-0.8-1.1-1.3-2.5-1.3-4.4c0-2,0.5-3.5,1.4-4.5c0.9-1,2.3-1.5,4-1.5c0.6,0,1.1,0.1,1.7,0.2c0.5,0.2,1,0.4,1.4,0.7
		c0.4,0.3,0.8,0.8,1,1.4c0.3,0.6,0.4,1.3,0.4,2.2c0,0.3,0,0.7-0.1,1c0,0.4-0.1,0.7-0.2,1.1h-6.8c0,0.9,0.3,1.7,0.7,2.1
		c0.4,0.5,1.2,0.7,2.2,0.7c0.6,0,1.2-0.1,1.7-0.3c0.5-0.2,0.9-0.4,1.1-0.6L-799.9,1085.7z M-804.1,1077.4c-0.8,0-1.3,0.2-1.7,0.7
		c-0.4,0.5-0.6,1.1-0.7,1.8h4.2c0.1-0.8-0.1-1.4-0.4-1.9C-803,1077.6-803.5,1077.4-804.1,1077.4z"/>
	<path fill="#FFFFFF" d="M-790.2,1085.9c-0.5,0.3-1,0.6-1.6,0.8c-0.6,0.2-1.3,0.3-2,0.3c-0.9,0-1.7-0.1-2.3-0.4
		c-0.6-0.3-1.1-0.7-1.5-1.2c-0.4-0.5-0.7-1.1-0.8-1.9c-0.2-0.7-0.3-1.5-0.3-2.4c0-1.9,0.4-3.4,1.3-4.4c0.9-1,2.1-1.5,3.7-1.5
		c0.8,0,1.5,0.1,2,0.2c0.5,0.1,1,0.3,1.4,0.5l-0.7,2.4c-0.3-0.2-0.7-0.3-1-0.4c-0.3-0.1-0.7-0.1-1.2-0.1c-0.8,0-1.4,0.3-1.8,0.8
		c-0.4,0.5-0.6,1.4-0.6,2.6c0,0.5,0.1,0.9,0.2,1.3c0.1,0.4,0.3,0.8,0.5,1.1c0.2,0.3,0.5,0.5,0.8,0.7c0.3,0.2,0.7,0.3,1.2,0.3
		c0.5,0,0.9-0.1,1.3-0.2c0.3-0.1,0.7-0.3,0.9-0.5L-790.2,1085.9z"/>
	<path fill="#FFFFFF" d="M-782.1,1086.6v-6.4c0-0.9-0.1-1.6-0.4-2c-0.3-0.4-0.7-0.6-1.4-0.6c-0.5,0-1,0.2-1.4,0.5
		c-0.4,0.3-0.7,0.8-0.8,1.3v7.2h-2.9v-15.8h2.9v5.8h0.1c0.4-0.5,0.8-0.9,1.3-1.1c0.5-0.3,1.2-0.4,2-0.4c0.6,0,1.1,0.1,1.5,0.2
		c0.4,0.2,0.8,0.4,1.1,0.7c0.3,0.3,0.5,0.8,0.7,1.4c0.1,0.6,0.2,1.3,0.2,2.2v7H-782.1z"/>
	<path fill="#FFFFFF" d="M-760.9,1078.5l0.3-3.1h-0.1l-1,2.5l-3.4,5.9h-1l-3.5-5.9l-1-2.5h-0.1l0.5,3.1v8.2h-2.9v-15.8h2.8l4.2,7.2
		l0.7,1.8h0.1l0.7-1.8l4-7.2h2.8v15.8h-3.1V1078.5z"/>
	<path fill="#FFFFFF" d="M-755.8,1076c0.6-0.3,1.3-0.5,2.1-0.6c0.8-0.2,1.7-0.2,2.6-0.2c0.8,0,1.4,0.1,2,0.3
		c0.5,0.2,0.9,0.5,1.3,0.8c0.3,0.3,0.5,0.8,0.7,1.2c0.1,0.5,0.2,1,0.2,1.6c0,0.7,0,1.3-0.1,2c0,0.7-0.1,1.3-0.1,2
		c0,0.6,0,1.3,0.1,1.9c0,0.6,0.2,1.2,0.3,1.7h-2.4l-0.5-1.6h-0.1c-0.3,0.5-0.7,0.9-1.3,1.2c-0.5,0.3-1.2,0.5-2.1,0.5
		c-0.5,0-1-0.1-1.4-0.2c-0.4-0.2-0.8-0.4-1.1-0.7c-0.3-0.3-0.5-0.6-0.7-1c-0.2-0.4-0.2-0.8-0.2-1.3c0-0.7,0.2-1.3,0.5-1.7
		c0.3-0.5,0.8-0.9,1.3-1.1c0.6-0.3,1.3-0.5,2.1-0.6c0.8-0.1,1.7-0.1,2.7-0.1c0.1-0.8,0-1.4-0.2-1.8c-0.2-0.4-0.7-0.6-1.5-0.6
		c-0.6,0-1.2,0.1-1.9,0.2c-0.7,0.1-1.2,0.3-1.6,0.5L-755.8,1076z M-752.1,1084.4c0.6,0,1.1-0.1,1.4-0.4c0.3-0.3,0.6-0.5,0.8-0.8
		v-1.5c-0.5,0-0.9-0.1-1.3,0c-0.4,0-0.8,0.1-1.1,0.2c-0.3,0.1-0.6,0.3-0.8,0.5c-0.2,0.2-0.3,0.4-0.3,0.7c0,0.4,0.1,0.7,0.4,1
		C-752.9,1084.3-752.6,1084.4-752.1,1084.4z"/>
	<path fill="#FFFFFF" d="M-745.2,1075.4h2.1l0.3,1.4h0.1c0.4-0.6,0.9-1,1.4-1.3c0.5-0.3,1.2-0.4,1.9-0.4c1.4,0,2.5,0.4,3.2,1.3
		c0.7,0.9,1.1,2.3,1.1,4.3c0,1-0.1,1.8-0.3,2.6c-0.2,0.8-0.6,1.4-1,2c-0.4,0.5-1,1-1.6,1.2c-0.6,0.3-1.4,0.4-2.2,0.4
		c-0.5,0-0.8,0-1.1-0.1c-0.3-0.1-0.6-0.2-0.9-0.3v4.6h-2.9V1075.4z M-740.1,1077.5c-0.6,0-1,0.1-1.3,0.4c-0.3,0.3-0.6,0.7-0.8,1.3
		v4.7c0.2,0.2,0.4,0.3,0.7,0.4c0.2,0.1,0.6,0.1,1,0.1c0.8,0,1.5-0.3,1.9-0.9c0.4-0.6,0.6-1.6,0.6-2.9c0-1-0.2-1.8-0.5-2.3
		C-738.9,1077.8-739.4,1077.5-740.1,1077.5z"/>
	<path fill="#FFFFFF" d="M-811.7,1104.7h-6.5v-11h1.3v9.9h5.2V1104.7z"/>
	<path fill="#FFFFFF" d="M-811.2,1099.1c0-1.8,0.4-3.3,1.2-4.2c0.8-1,1.9-1.5,3.3-1.5c0.8,0,1.5,0.1,2,0.4c0.6,0.3,1,0.7,1.4,1.2
		c0.4,0.5,0.6,1.1,0.8,1.8c0.2,0.7,0.3,1.5,0.3,2.3c0,1.8-0.4,3.3-1.2,4.2c-0.8,1-1.9,1.5-3.4,1.5c-0.8,0-1.4-0.1-2-0.4
		c-0.6-0.3-1-0.7-1.4-1.2c-0.4-0.5-0.6-1.1-0.8-1.8C-811.1,1100.8-811.2,1100-811.2,1099.1z M-809.8,1099.1c0,0.6,0.1,1.2,0.2,1.7
		c0.1,0.5,0.3,1,0.6,1.4c0.3,0.4,0.6,0.7,1,1c0.4,0.2,0.9,0.4,1.4,0.4c1,0,1.7-0.4,2.3-1.1c0.6-0.7,0.8-1.9,0.8-3.4
		c0-0.6-0.1-1.2-0.2-1.7c-0.1-0.6-0.3-1-0.6-1.5c-0.3-0.4-0.6-0.7-1-1c-0.4-0.2-0.9-0.4-1.4-0.4c-1,0-1.7,0.4-2.3,1.1
		C-809.5,1096.5-809.8,1097.6-809.8,1099.1z"/>
	<path fill="#FFFFFF" d="M-797.6,1097.4l-0.9-1.6h-0.1l0.2,1.6v7.2h-1.2v-11.2h0.7l5.3,7.4l0.8,1.5h0.1l-0.2-1.5v-7.2h1.2v11.2h-0.7
		L-797.6,1097.4z"/>
	<path fill="#FFFFFF" d="M-788.5,1093.6c0.2,0,0.4-0.1,0.7-0.1c0.2,0,0.5,0,0.8,0c0.3,0,0.5,0,0.8,0c0.3,0,0.5,0,0.7,0
		c0.9,0,1.6,0.1,2.3,0.4c0.6,0.3,1.2,0.7,1.6,1.1c0.4,0.5,0.7,1.1,0.9,1.8c0.2,0.7,0.3,1.4,0.3,2.3c0,0.7-0.1,1.5-0.3,2.2
		c-0.2,0.7-0.5,1.3-0.9,1.8c-0.4,0.5-1,1-1.6,1.3c-0.7,0.3-1.5,0.5-2.4,0.5c-0.2,0-0.4,0-0.7,0c-0.3,0-0.5,0-0.8,0
		c-0.3,0-0.5,0-0.8,0c-0.2,0-0.4,0-0.5,0V1093.6z M-785.6,1094.7c-0.1,0-0.3,0-0.4,0c-0.2,0-0.3,0-0.5,0c-0.2,0-0.3,0-0.4,0
		c-0.1,0-0.2,0-0.3,0v8.8c0.1,0,0.2,0,0.3,0c0.1,0,0.3,0,0.5,0c0.2,0,0.3,0,0.5,0c0.1,0,0.2,0,0.3,0c0.7,0,1.4-0.1,1.9-0.4
		c0.5-0.3,0.9-0.6,1.2-1c0.3-0.4,0.5-0.9,0.6-1.5c0.1-0.6,0.2-1.1,0.2-1.7c0-0.5-0.1-1-0.2-1.6c-0.1-0.5-0.3-1-0.6-1.4
		c-0.3-0.4-0.7-0.8-1.1-1C-784.2,1094.8-784.8,1094.7-785.6,1094.7z"/>
	<path fill="#FFFFFF" d="M-778.3,1099.1c0-1.8,0.4-3.3,1.2-4.2c0.8-1,1.9-1.5,3.3-1.5c0.8,0,1.5,0.1,2,0.4c0.6,0.3,1,0.7,1.4,1.2
		c0.4,0.5,0.6,1.1,0.8,1.8c0.2,0.7,0.3,1.5,0.3,2.3c0,1.8-0.4,3.3-1.2,4.2c-0.8,1-1.9,1.5-3.4,1.5c-0.8,0-1.4-0.1-2-0.4
		c-0.6-0.3-1-0.7-1.4-1.2c-0.4-0.5-0.6-1.1-0.8-1.8C-778.2,1100.8-778.3,1100-778.3,1099.1z M-776.9,1099.1c0,0.6,0.1,1.2,0.2,1.7
		c0.1,0.5,0.3,1,0.6,1.4c0.3,0.4,0.6,0.7,1,1c0.4,0.2,0.9,0.4,1.4,0.4c1,0,1.7-0.4,2.3-1.1c0.6-0.7,0.8-1.9,0.8-3.4
		c0-0.6-0.1-1.2-0.2-1.7c-0.1-0.6-0.3-1-0.6-1.5c-0.3-0.4-0.6-0.7-1-1c-0.4-0.2-0.9-0.4-1.4-0.4c-1,0-1.7,0.4-2.3,1.1
		C-776.6,1096.5-776.9,1097.6-776.9,1099.1z"/>
	<path fill="#FFFFFF" d="M-764.6,1097.4l-0.9-1.6h-0.1l0.2,1.6v7.2h-1.2v-11.2h0.7l5.3,7.4l0.8,1.5h0.1l-0.2-1.5v-7.2h1.2v11.2h-0.7
		L-764.6,1097.4z"/>
</g>
<path fill="#B71300" d="M-831.5,1090.4c-1,1-2.1,1.5-3.1,1.5c-1.4,0-2.7-0.9-4.1-2.3c-2.7-2.7-2.7-5.4,0-8.1c0,0,0,0,0,0
	c1.4-1.4,2.7-2.3,4.1-2.3c1,0,2.1,0.5,3.1,1.5c1.3,1.3,3.5,1.3,4.8,0c1.3-1.3,1.3-3.5,0-4.8c-1.3-1.3-3.5-1.3-4.8,0
	c-1,1-2.1,1.5-3.1,1.5c-1.4,0-2.7-0.9-4.1-2.3c0,0,0,0,0,0c-0.9-0.9-2-1.3-3.2-1.3c0,0,0,0,0,0c-1.2,0-2.3,0.4-3.2,1.3
	c-1.4,1.4-2.7,2.3-4.1,2.3c-1,0-2.1-0.5-3.1-1.5c-1.3-1.3-3.5-1.3-4.8,0s-1.3,3.5,0,4.8c1.3,1.3,3.5,1.3,4.8,0c1-1,2.1-1.5,3.1-1.5
	c1.4,0,2.7,0.9,4.1,2.3c0,0,0.1,0.1,0.1,0.1c2.6,2.7,2.6,5.4-0.1,8c-1.7,1.7-1.7,4.6,0,6.3c1.7,1.7,4.6,1.8,6.3,0
	c1.4-1.4,2.7-2.4,4.1-2.4c1,0,2.1,0.5,3.1,1.5c1.3,1.3,3.5,1.3,4.8,0c1.3-1.3,1.3-3.5,0-4.8C-828,1089-830.2,1089-831.5,1090.4z"/>
</svg>
