<?xml version="1.0" encoding="utf-8"?>
<!-- Generator: Adobe Illustrator 18.1.1, SVG Export Plug-In . SVG Version: 6.00 Build 0)  -->
<!DOCTYPE svg PUBLIC "-//W3C//DTD SVG 1.1//EN" "http://www.w3.org/Graphics/SVG/1.1/DTD/svg11.dtd">
<svg version="1.1" id="Layer_1" xmlns="http://www.w3.org/2000/svg" xmlns:xlink="http://www.w3.org/1999/xlink" x="0px" y="0px"
	 width="116px" height="35px" viewBox="0 0 116 35" enable-background="new 0 0 116 35" xml:space="preserve">
<g>
	<path fill="#FFFFFF" d="M33.5,17.6c-0.4,0.3-1,0.5-1.7,0.7c-0.7,0.1-1.4,0.2-2.1,0.2c-0.9,0-1.7-0.1-2.5-0.4
		c-0.8-0.3-1.5-0.7-2-1.3c-0.6-0.6-1.1-1.4-1.4-2.3c-0.3-1-0.5-2.1-0.5-3.5c0-1.4,0.2-2.6,0.6-3.5c0.4-1,0.9-1.7,1.5-2.3
		c0.6-0.6,1.3-1,2.1-1.3c0.8-0.3,1.5-0.4,2.3-0.4c0.8,0,1.5,0.1,2.1,0.2c0.6,0.1,1,0.2,1.4,0.4l-0.6,2.4c-0.3-0.2-0.7-0.3-1.1-0.3
		C31.2,6,30.6,6,30,6c-1.1,0-2.1,0.4-2.7,1.2c-0.7,0.8-1,2.1-1,3.8c0,0.7,0.1,1.4,0.2,2c0.2,0.6,0.4,1.1,0.8,1.6
		c0.3,0.4,0.8,0.8,1.3,1c0.5,0.2,1.1,0.4,1.7,0.4c0.6,0,1.1-0.1,1.6-0.2c0.4-0.1,0.8-0.3,1.1-0.5L33.5,17.6z"/>
	<path fill="#FFFFFF" d="M34.4,8.5c0.5-0.2,1.2-0.4,2-0.6c0.8-0.1,1.5-0.2,2.4-0.2c0.7,0,1.3,0.1,1.8,0.3c0.5,0.2,0.9,0.4,1.1,0.7
		c0.3,0.3,0.5,0.7,0.6,1.1c0.1,0.4,0.2,0.9,0.2,1.5c0,0.6,0,1.2-0.1,1.8c0,0.6-0.1,1.2-0.1,1.8c0,0.6,0,1.2,0.1,1.7
		c0,0.6,0.1,1.1,0.3,1.6h-2.2L40,16.8h-0.1c-0.3,0.4-0.7,0.8-1.1,1.1c-0.5,0.3-1.1,0.5-1.9,0.5c-0.5,0-0.9-0.1-1.3-0.2
		c-0.4-0.1-0.7-0.3-1-0.6c-0.3-0.3-0.5-0.6-0.6-0.9c-0.2-0.4-0.2-0.8-0.2-1.2c0-0.6,0.1-1.2,0.4-1.6c0.3-0.4,0.7-0.8,1.2-1
		c0.5-0.3,1.2-0.5,1.9-0.6c0.7-0.1,1.6-0.1,2.5-0.1c0.1-0.8,0-1.3-0.2-1.7c-0.2-0.3-0.7-0.5-1.4-0.5c-0.5,0-1.1,0.1-1.7,0.2
		c-0.6,0.1-1.1,0.3-1.5,0.4L34.4,8.5z M37.8,16.1c0.5,0,1-0.1,1.3-0.4c0.3-0.2,0.5-0.5,0.7-0.8v-1.3c-0.4,0-0.8,0-1.2,0
		c-0.4,0-0.7,0.1-1,0.2c-0.3,0.1-0.5,0.2-0.7,0.4c-0.2,0.2-0.3,0.4-0.3,0.7c0,0.4,0.1,0.7,0.3,0.9C37,16,37.4,16.1,37.8,16.1z"/>
	<path fill="#FFFFFF" d="M49.9,18.2v-5.6c0-0.9-0.1-1.6-0.3-2c-0.2-0.4-0.5-0.6-1.1-0.6c-0.5,0-0.8,0.1-1.1,0.4
		c-0.3,0.3-0.5,0.6-0.7,1v6.8h-2.7V7.9h2.1l0.3,1.4h0.1c0.3-0.4,0.7-0.8,1.2-1.2c0.5-0.3,1.1-0.5,1.9-0.5c0.7,0,1.2,0.1,1.6,0.4
		c0.4,0.3,0.7,0.7,1,1.3c0.3-0.5,0.7-1,1.2-1.3c0.5-0.3,1.1-0.5,1.8-0.5c0.6,0,1.1,0.1,1.5,0.2c0.4,0.1,0.7,0.4,1,0.7
		c0.3,0.3,0.4,0.8,0.6,1.3c0.1,0.6,0.2,1.3,0.2,2.1v6.2h-2.7v-5.8c0-0.8-0.1-1.4-0.3-1.8C55.4,10.2,55,10,54.4,10
		c-0.5,0-0.9,0.1-1.1,0.4c-0.3,0.3-0.5,0.6-0.6,1.1v6.7H49.9z"/>
	<path fill="#FFFFFF" d="M60.1,3.8h2.7v4.9h0.1c0.3-0.3,0.7-0.6,1.1-0.8c0.5-0.2,1-0.3,1.5-0.3c1.2,0,2.2,0.4,2.8,1.3
		c0.7,0.8,1,2.1,1,3.9c0,1.9-0.5,3.3-1.4,4.2c-0.9,1-2.2,1.4-3.8,1.4c-0.9,0-1.7-0.1-2.4-0.2c-0.7-0.1-1.3-0.3-1.6-0.5V3.8z
		 M64.7,9.9c-0.5,0-0.9,0.1-1.2,0.4c-0.3,0.3-0.5,0.6-0.7,1.1v4.5c0.2,0.1,0.5,0.2,0.7,0.2c0.3,0,0.5,0.1,0.8,0.1
		c0.7,0,1.3-0.3,1.7-0.8c0.4-0.5,0.6-1.4,0.6-2.5C66.6,10.9,65.9,9.9,64.7,9.9z"/>
	<path fill="#FFFFFF" d="M76.3,10.4c-0.4-0.2-0.8-0.2-1.2-0.2c-0.5,0-0.9,0.1-1.2,0.4c-0.3,0.3-0.5,0.6-0.6,1v6.6h-2.7V7.9h2.1
		L73,9.3h0.1c0.2-0.5,0.5-0.9,0.9-1.2c0.4-0.3,0.9-0.4,1.4-0.4c0.4,0,0.8,0.1,1.2,0.2L76.3,10.4z"/>
	<path fill="#FFFFFF" d="M77.2,5c0-0.4,0.1-0.7,0.4-1c0.3-0.3,0.7-0.4,1.2-0.4c0.5,0,0.9,0.1,1.3,0.4c0.3,0.3,0.5,0.6,0.5,1
		s-0.2,0.7-0.5,1c-0.3,0.3-0.7,0.4-1.3,0.4c-0.5,0-0.9-0.1-1.2-0.4C77.4,5.7,77.2,5.4,77.2,5z M77.6,7.9h2.7v10.3h-2.7V7.9z"/>
	<path fill="#FFFFFF" d="M91.1,14.6c0,0.6,0,1.2,0,1.7c0,0.6,0.1,1.2,0.2,1.9h-1.9L89,16.9h-0.1c-0.3,0.5-0.7,0.9-1.2,1.2
		c-0.5,0.3-1.1,0.4-1.8,0.4c-1.3,0-2.3-0.4-3-1.3c-0.7-0.8-1.1-2.2-1.1-4c0-1.8,0.4-3.1,1.2-4.1c0.8-1,2-1.5,3.5-1.5
		c0.4,0,0.8,0,1,0.1c0.3,0,0.5,0.1,0.8,0.2V3.8h2.7V14.6z M86.6,16.2c0.5,0,0.9-0.1,1.2-0.4c0.3-0.3,0.5-0.6,0.6-1.1v-4.4
		c-0.2-0.2-0.4-0.3-0.6-0.3c-0.2-0.1-0.5-0.1-0.9-0.1c-0.8,0-1.3,0.3-1.7,0.8c-0.4,0.5-0.6,1.4-0.6,2.6c0,0.9,0.2,1.6,0.5,2.1
		C85.4,15.9,85.9,16.2,86.6,16.2z"/>
	<path fill="#FFFFFF" d="M101.6,18.2c0,1.5-0.4,2.6-1.2,3.3c-0.8,0.7-1.9,1.1-3.4,1.1c-1,0-1.8-0.1-2.3-0.2c-0.6-0.1-1-0.3-1.3-0.4
		l0.6-2.1c0.3,0.1,0.7,0.2,1.1,0.4c0.4,0.1,0.9,0.2,1.6,0.2c0.9,0,1.6-0.2,1.9-0.6c0.3-0.4,0.5-1,0.5-1.7v-0.7h-0.1
		c-0.5,0.6-1.3,1-2.5,1c-1.3,0-2.3-0.4-3-1.2c-0.7-0.8-1-2.1-1-3.9c0-1.8,0.4-3.2,1.3-4.2c0.9-0.9,2.2-1.4,3.8-1.4
		c0.9,0,1.7,0.1,2.4,0.2c0.7,0.1,1.3,0.3,1.7,0.4V18.2z M97.1,16.2c0.5,0,0.9-0.1,1.2-0.3c0.3-0.2,0.5-0.6,0.6-1v-4.6
		c-0.4-0.2-1-0.3-1.6-0.3c-0.7,0-1.2,0.3-1.6,0.8c-0.4,0.5-0.6,1.3-0.6,2.5c0,1,0.2,1.8,0.5,2.3C96,15.9,96.5,16.2,97.1,16.2z"/>
	<path fill="#FFFFFF" d="M111.7,17.3c-0.4,0.3-1,0.6-1.7,0.8c-0.7,0.2-1.5,0.3-2.3,0.3c-1.7,0-2.9-0.5-3.6-1.4c-0.8-1-1.2-2.3-1.2-4
		c0-1.8,0.4-3.2,1.3-4.1c0.9-0.9,2.1-1.4,3.6-1.4c0.5,0,1,0.1,1.5,0.2c0.5,0.1,0.9,0.4,1.3,0.7c0.4,0.3,0.7,0.7,0.9,1.3
		c0.2,0.5,0.3,1.2,0.3,2c0,0.3,0,0.6-0.1,0.9c0,0.3-0.1,0.7-0.2,1h-6.2c0,0.9,0.3,1.5,0.7,2c0.4,0.4,1.1,0.7,2,0.7
		c0.6,0,1.1-0.1,1.5-0.3c0.4-0.2,0.8-0.3,1-0.5L111.7,17.3z M107.8,9.7c-0.7,0-1.2,0.2-1.6,0.6c-0.3,0.4-0.5,1-0.6,1.7h3.8
		c0.1-0.7-0.1-1.3-0.3-1.7C108.9,9.9,108.4,9.7,107.8,9.7z"/>
	<path fill="#FFFFFF" d="M30.2,34.2c-0.3,0.2-0.7,0.4-1.1,0.5c-0.4,0.1-0.9,0.1-1.4,0.1c-0.6,0-1.2-0.1-1.7-0.3
		c-0.5-0.2-1-0.5-1.4-0.9c-0.4-0.4-0.7-1-0.9-1.6c-0.2-0.7-0.3-1.4-0.3-2.3c0-0.9,0.1-1.7,0.4-2.4c0.3-0.7,0.6-1.2,1-1.6
		c0.4-0.4,0.9-0.7,1.4-0.9c0.5-0.2,1-0.3,1.6-0.3c0.6,0,1,0,1.4,0.1c0.4,0.1,0.7,0.1,0.9,0.3l-0.3,1.1c-0.5-0.2-1.1-0.3-2-0.3
		c-0.4,0-0.8,0.1-1.2,0.2c-0.4,0.1-0.7,0.4-1,0.7c-0.3,0.3-0.5,0.8-0.7,1.3c-0.2,0.5-0.3,1.2-0.3,1.9c0,0.7,0.1,1.3,0.3,1.8
		c0.2,0.5,0.4,0.9,0.7,1.3c0.3,0.3,0.7,0.6,1.1,0.8c0.4,0.2,0.9,0.3,1.3,0.3c0.4,0,0.8,0,1.1-0.1c0.3-0.1,0.6-0.2,0.8-0.3L30.2,34.2
		z"/>
	<path fill="#FFFFFF" d="M38.3,34.6h-6V24.5h1.2v9h4.8V34.6z"/>
	<path fill="#FFFFFF" d="M45.9,24.5H47v6.7c0,0.6-0.1,1.1-0.2,1.6c-0.2,0.4-0.4,0.8-0.7,1.1c-0.3,0.3-0.6,0.5-1.1,0.6
		s-0.9,0.2-1.4,0.2c-1.2,0-2.1-0.3-2.7-0.8c-0.6-0.5-0.9-1.4-0.9-2.4v-7h1.2v6.4c0,0.5,0.1,0.9,0.2,1.3c0.1,0.4,0.3,0.6,0.5,0.8
		c0.2,0.2,0.5,0.4,0.8,0.5c0.3,0.1,0.7,0.1,1.1,0.1c0.8,0,1.3-0.2,1.7-0.6c0.3-0.4,0.5-1.1,0.5-2.1V24.5z"/>
	<path fill="#FFFFFF" d="M54.4,32.1c0-0.4-0.1-0.7-0.4-1c-0.2-0.3-0.5-0.5-0.9-0.7c-0.4-0.2-0.8-0.4-1.2-0.6
		c-0.4-0.2-0.8-0.4-1.2-0.6c-0.4-0.2-0.7-0.5-0.9-0.9c-0.2-0.4-0.4-0.8-0.4-1.4c0-0.8,0.3-1.4,0.8-1.9c0.5-0.5,1.3-0.7,2.3-0.7
		c0.6,0,1.1,0,1.6,0.1s0.9,0.2,1.1,0.3L55,25.9c-0.2-0.1-0.5-0.2-1-0.3c-0.4-0.1-0.9-0.1-1.4-0.1c-0.6,0-1.1,0.1-1.4,0.4
		c-0.3,0.3-0.5,0.6-0.5,1c0,0.4,0.1,0.7,0.4,0.9c0.2,0.2,0.5,0.5,0.9,0.7c0.4,0.2,0.8,0.4,1.2,0.6c0.4,0.2,0.8,0.4,1.2,0.7
		c0.4,0.3,0.7,0.6,0.9,0.9c0.2,0.4,0.4,0.8,0.4,1.3c0,0.4-0.1,0.8-0.2,1.2c-0.2,0.3-0.4,0.6-0.7,0.9c-0.3,0.2-0.7,0.4-1.1,0.6
		c-0.4,0.1-0.9,0.2-1.4,0.2c-0.7,0-1.3-0.1-1.8-0.2c-0.5-0.1-0.8-0.2-1.1-0.4l0.4-1.1c0.2,0.1,0.5,0.2,1,0.4
		c0.4,0.1,0.9,0.2,1.5,0.2c0.3,0,0.6,0,0.9-0.1c0.3-0.1,0.5-0.2,0.7-0.3c0.2-0.1,0.4-0.3,0.5-0.5C54.3,32.6,54.4,32.3,54.4,32.1z"/>
	<path fill="#FFFFFF" d="M64.4,25.6h-3.1v9H60v-9h-3.1v-1.1h7.5V25.6z"/>
	<path fill="#FFFFFF" d="M66.2,24.5h5.5v1.1h-4.3v3.3h3.9V30h-3.9v3.6h4.4v1.1h-5.6V24.5z"/>
	<path fill="#FFFFFF" d="M74.3,24.6c0.4-0.1,0.8-0.1,1.3-0.2c0.5,0,0.9-0.1,1.3-0.1c0.4,0,0.9,0,1.3,0.1c0.4,0.1,0.7,0.3,1.1,0.5
		c0.3,0.2,0.5,0.5,0.7,0.9c0.2,0.4,0.3,0.8,0.3,1.3c0,0.8-0.2,1.4-0.6,1.9c-0.4,0.5-1,0.8-1.6,1l0.7,0.5l2.5,4h-1.4l-2.8-4.3
		l-1.4-0.2v4.6h-1.2V24.6z M76.9,25.5c-0.1,0-0.3,0-0.4,0c-0.1,0-0.3,0-0.4,0c-0.1,0-0.2,0-0.4,0c-0.1,0-0.2,0-0.3,0v3.7h1.1
		c0.7,0,1.2-0.2,1.6-0.5s0.6-0.8,0.6-1.5c0-0.5-0.2-0.9-0.5-1.3C78,25.6,77.5,25.5,76.9,25.5z"/>
	<path fill="#FFFFFF" d="M96.9,27.9l0.1-1.5H97l-0.5,1.4l-2.6,4.5h-0.4l-2.8-4.6l-0.5-1.4h-0.1l0.2,1.5v6.8h-1.1V24.5h0.9l3.2,5.2
		l0.5,1.1h0l0.4-1.2l3-5.1h0.9v10.1h-1.2V27.9z"/>
	<path fill="#FFFFFF" d="M105.7,31.8H102l-1,2.8h-1.2l3.8-10.2h0.5l3.8,10.2h-1.3L105.7,31.8z M102.4,30.8h2.9l-1.1-3.1l-0.4-1.5h0
		l-0.4,1.6L102.4,30.8z"/>
	<path fill="#FFFFFF" d="M109.7,24.6c0.4-0.1,0.8-0.1,1.2-0.2c0.4,0,0.8,0,1.3,0c0.4,0,0.9,0,1.3,0.1c0.5,0.1,0.9,0.2,1.2,0.5
		c0.4,0.2,0.7,0.5,0.9,0.9c0.2,0.4,0.4,0.9,0.4,1.5c0,0.6-0.1,1.1-0.3,1.6c-0.2,0.4-0.5,0.8-0.9,1c-0.4,0.3-0.8,0.5-1.3,0.6
		c-0.5,0.1-1,0.2-1.5,0.2c0,0-0.1,0-0.2,0c-0.1,0-0.2,0-0.3,0c-0.1,0-0.2,0-0.4,0c-0.1,0-0.2,0-0.2,0v3.8h-1.2V24.6z M112.2,25.5
		c-0.2,0-0.5,0-0.7,0c-0.2,0-0.4,0-0.5,0.1v4.2c0,0,0.1,0,0.2,0c0.1,0,0.2,0,0.3,0c0.1,0,0.2,0,0.3,0c0.1,0,0.2,0,0.2,0
		c0.3,0,0.6,0,1-0.1c0.3-0.1,0.6-0.2,0.9-0.3c0.3-0.2,0.5-0.4,0.6-0.7c0.2-0.3,0.2-0.7,0.2-1.1c0-0.4-0.1-0.7-0.2-1
		c-0.1-0.3-0.3-0.5-0.6-0.6c-0.2-0.2-0.5-0.3-0.8-0.3C112.8,25.5,112.5,25.5,112.2,25.5z"/>
</g>
<g>
	<circle fill="#28828A" cx="15.6" cy="14.3" r="4.5"/>
	<circle fill="#28828A" cx="4.5" cy="14" r="4.5"/>
	<circle fill="#28828A" cx="10.4" cy="4.5" r="4.5"/>
</g>
</svg>
