<?xml version="1.0" encoding="utf-8"?>
<!-- Generator: Adobe Illustrator 18.1.1, SVG Export Plug-In . SVG Version: 6.00 Build 0)  -->
<!DOCTYPE svg PUBLIC "-//W3C//DTD SVG 1.1//EN" "http://www.w3.org/Graphics/SVG/1.1/DTD/svg11.dtd">
<svg version="1.1" id="Layer_1" xmlns="http://www.w3.org/2000/svg" xmlns:xlink="http://www.w3.org/1999/xlink" x="0px" y="0px"
	 width="128px" height="35px" viewBox="0 0 128 35" enable-background="new 0 0 128 35" xml:space="preserve">
<g>
	<path fill="#FFFFFF" d="M29.3,14c0-0.4-0.2-0.8-0.5-1c-0.3-0.3-0.7-0.5-1.2-0.7c-0.5-0.2-1-0.4-1.5-0.7c-0.6-0.2-1.1-0.5-1.5-0.9
		c-0.5-0.3-0.9-0.8-1.2-1.3c-0.3-0.5-0.5-1.2-0.5-1.9c0-0.7,0.1-1.3,0.3-1.8c0.2-0.5,0.6-0.9,1-1.3c0.4-0.3,0.9-0.6,1.5-0.7
		c0.6-0.2,1.2-0.2,1.9-0.2c0.8,0,1.6,0.1,2.3,0.2c0.7,0.1,1.3,0.3,1.8,0.6l-0.9,2.3c-0.3-0.2-0.7-0.4-1.3-0.5
		c-0.6-0.2-1.2-0.2-1.9-0.2c-0.6,0-1.1,0.1-1.5,0.4c-0.3,0.3-0.5,0.6-0.5,1c0,0.4,0.2,0.7,0.5,1c0.3,0.3,0.7,0.5,1.2,0.7
		c0.5,0.2,1,0.5,1.5,0.7c0.6,0.2,1.1,0.5,1.5,0.9c0.5,0.3,0.9,0.8,1.2,1.3c0.3,0.5,0.5,1.1,0.5,1.9c0,0.7-0.1,1.4-0.4,1.9
		c-0.2,0.5-0.6,1-1,1.4c-0.4,0.4-1,0.6-1.6,0.8c-0.6,0.2-1.3,0.3-2.1,0.3c-1,0-1.9-0.1-2.7-0.3s-1.3-0.4-1.7-0.6l0.9-2.3
		c0.1,0.1,0.3,0.2,0.6,0.3c0.2,0.1,0.5,0.2,0.8,0.3c0.3,0.1,0.6,0.1,0.9,0.2c0.3,0.1,0.7,0.1,1,0.1c0.8,0,1.4-0.1,1.9-0.4
		C29,15,29.3,14.5,29.3,14z"/>
	<path fill="#FFFFFF" d="M32.2,7.7h1.4V5.8l2.6-0.7v2.6h2.4v2.2h-2.4v3.9c0,0.7,0.1,1.2,0.2,1.5c0.1,0.3,0.4,0.5,0.8,0.5
		c0.3,0,0.5,0,0.7-0.1c0.2-0.1,0.4-0.1,0.7-0.2l0.5,2c-0.4,0.2-0.8,0.3-1.3,0.4c-0.5,0.1-1,0.2-1.5,0.2c-0.9,0-1.6-0.2-2-0.7
		s-0.7-1.3-0.7-2.3V9.9h-1.4V7.7z"/>
	<path fill="#FFFFFF" d="M39.7,8.3c0.5-0.2,1.2-0.4,1.9-0.6c0.7-0.1,1.5-0.2,2.3-0.2c0.7,0,1.3,0.1,1.7,0.3s0.8,0.4,1.1,0.7
		c0.3,0.3,0.5,0.7,0.6,1.1c0.1,0.4,0.2,0.9,0.2,1.4c0,0.6,0,1.2-0.1,1.8c0,0.6-0.1,1.2-0.1,1.8c0,0.6,0,1.1,0.1,1.7
		c0,0.5,0.1,1.1,0.3,1.5h-2.1l-0.4-1.4h-0.1c-0.3,0.4-0.6,0.8-1.1,1.1c-0.5,0.3-1.1,0.5-1.8,0.5c-0.5,0-0.9-0.1-1.3-0.2
		c-0.4-0.1-0.7-0.3-1-0.6c-0.3-0.3-0.5-0.6-0.6-0.9c-0.1-0.4-0.2-0.8-0.2-1.2c0-0.6,0.1-1.1,0.4-1.6c0.3-0.4,0.7-0.8,1.2-1
		c0.5-0.3,1.1-0.4,1.8-0.5c0.7-0.1,1.5-0.1,2.4-0.1c0.1-0.7,0-1.3-0.2-1.6c-0.2-0.3-0.6-0.5-1.3-0.5c-0.5,0-1.1,0.1-1.7,0.2
		c-0.6,0.1-1.1,0.2-1.4,0.4L39.7,8.3z M43,15.8c0.5,0,0.9-0.1,1.2-0.4c0.3-0.2,0.5-0.5,0.7-0.8v-1.3c-0.4,0-0.8,0-1.2,0
		c-0.4,0-0.7,0.1-1,0.2c-0.3,0.1-0.5,0.2-0.7,0.4c-0.2,0.2-0.3,0.4-0.3,0.7c0,0.4,0.1,0.7,0.3,0.9C42.3,15.7,42.6,15.8,43,15.8z"/>
	<path fill="#FFFFFF" d="M54.8,10.2C54.4,10,54,9.9,53.6,9.9c-0.5,0-0.9,0.1-1.2,0.4c-0.3,0.2-0.5,0.6-0.6,1v6.5h-2.6v-10h2L51.6,9
		h0.1c0.2-0.5,0.5-0.9,0.9-1.1c0.4-0.3,0.8-0.4,1.4-0.4c0.3,0,0.7,0.1,1.2,0.2L54.8,10.2z"/>
	<path fill="#FFFFFF" d="M55.3,7.7h1.4V5.8l2.6-0.7v2.6h2.4v2.2h-2.4v3.9c0,0.7,0.1,1.2,0.2,1.5c0.1,0.3,0.4,0.5,0.8,0.5
		c0.3,0,0.5,0,0.7-0.1c0.2-0.1,0.4-0.1,0.7-0.2l0.5,2c-0.4,0.2-0.8,0.3-1.3,0.4c-0.5,0.1-1,0.2-1.5,0.2c-0.9,0-1.6-0.2-2-0.7
		c-0.4-0.5-0.7-1.3-0.7-2.3V9.9h-1.4V7.7z"/>
	<path fill="#FFFFFF" d="M65.4,7.7v5.7c0,0.8,0.1,1.4,0.3,1.8c0.2,0.4,0.6,0.5,1.1,0.5c0.5,0,0.9-0.1,1.2-0.4
		c0.3-0.3,0.6-0.7,0.7-1.1V7.7h2.6v7c0,0.5,0,1.1,0.1,1.6c0.1,0.5,0.1,1,0.2,1.4h-2l-0.5-1.5h-0.1c-0.3,0.5-0.7,0.9-1.3,1.3
		C67.4,17.9,66.7,18,66,18c-0.5,0-1-0.1-1.4-0.2c-0.4-0.1-0.7-0.4-1-0.7c-0.3-0.3-0.5-0.7-0.6-1.2c-0.1-0.5-0.2-1.2-0.2-2V7.7H65.4z
		"/>
	<path fill="#FFFFFF" d="M73.2,7.7h1.9l0.3,1.2h0.1c0.3-0.5,0.8-0.9,1.2-1.1c0.5-0.2,1.1-0.4,1.7-0.4c1.3,0,2.2,0.4,2.8,1.2
		c0.6,0.8,0.9,2.1,0.9,3.8c0,0.9-0.1,1.6-0.3,2.3c-0.2,0.7-0.5,1.3-0.9,1.8c-0.4,0.5-0.9,0.9-1.4,1.1c-0.6,0.3-1.2,0.4-2,0.4
		c-0.4,0-0.8,0-1-0.1c-0.3-0.1-0.5-0.2-0.8-0.3v4.1h-2.6V7.7z M77.7,9.6c-0.5,0-0.9,0.1-1.2,0.4c-0.3,0.3-0.5,0.6-0.7,1.1v4.2
		c0.2,0.1,0.4,0.3,0.6,0.4c0.2,0.1,0.5,0.1,0.9,0.1c0.7,0,1.3-0.3,1.7-0.8c0.4-0.5,0.6-1.4,0.6-2.6c0-0.9-0.1-1.6-0.4-2
		C78.8,9.9,78.3,9.6,77.7,9.6z"/>
	<path fill="#FFFFFF" d="M96.1,11.9h-5.1v5.9h-2.8V3.7h2.8v5.7h5.1V3.7h2.8v14.1h-2.8V11.9z"/>
	<path fill="#FFFFFF" d="M103.2,7.7v5.7c0,0.8,0.1,1.4,0.3,1.8c0.2,0.4,0.6,0.5,1.1,0.5c0.5,0,0.9-0.1,1.2-0.4
		c0.3-0.3,0.6-0.7,0.7-1.1V7.7h2.6v7c0,0.5,0,1.1,0.1,1.6c0.1,0.5,0.1,1,0.2,1.4h-2l-0.5-1.5H107c-0.3,0.5-0.7,0.9-1.3,1.3
		c-0.5,0.3-1.2,0.5-1.9,0.5c-0.5,0-1-0.1-1.4-0.2c-0.4-0.1-0.7-0.4-1-0.7c-0.3-0.3-0.5-0.7-0.6-1.2c-0.1-0.5-0.2-1.2-0.2-2V7.7
		H103.2z"/>
	<path fill="#FFFFFF" d="M111,3.7h2.6v4.8h0.1c0.3-0.3,0.6-0.6,1.1-0.8c0.4-0.2,0.9-0.3,1.5-0.3c1.2,0,2.1,0.4,2.8,1.2
		c0.6,0.8,1,2.1,1,3.8c0,1.8-0.4,3.2-1.3,4.1c-0.9,0.9-2.1,1.4-3.7,1.4c-0.9,0-1.6-0.1-2.3-0.2s-1.2-0.3-1.6-0.5V3.7z M115.5,9.7
		c-0.5,0-0.9,0.1-1.2,0.4c-0.3,0.2-0.5,0.6-0.7,1.1v4.4c0.2,0.1,0.4,0.2,0.7,0.2c0.2,0,0.5,0.1,0.8,0.1c0.7,0,1.2-0.3,1.6-0.8
		c0.4-0.5,0.6-1.3,0.6-2.5C117.2,10.6,116.6,9.7,115.5,9.7z"/>
	<path fill="#FFFFFF" d="M125.4,15c0-0.3-0.1-0.5-0.3-0.6c-0.2-0.2-0.5-0.3-0.8-0.4c-0.3-0.1-0.7-0.3-1.1-0.4
		c-0.4-0.1-0.8-0.3-1.1-0.6c-0.3-0.2-0.6-0.6-0.8-0.9c-0.2-0.4-0.3-0.9-0.3-1.5c0-1,0.3-1.7,0.9-2.3c0.6-0.5,1.4-0.8,2.6-0.8
		c0.8,0,1.5,0.1,2.1,0.2c0.6,0.2,1.1,0.3,1.4,0.5l-0.6,1.9c-0.3-0.1-0.7-0.2-1.2-0.4c-0.5-0.1-0.9-0.2-1.4-0.2
		c-0.8,0-1.2,0.3-1.2,0.9c0,0.2,0.1,0.4,0.3,0.6c0.2,0.1,0.5,0.3,0.8,0.4c0.3,0.1,0.7,0.3,1.1,0.4c0.4,0.1,0.8,0.3,1.1,0.6
		c0.3,0.2,0.6,0.5,0.8,0.9c0.2,0.4,0.3,0.9,0.3,1.4c0,1-0.3,1.8-1,2.4c-0.6,0.6-1.6,0.9-2.9,0.9c-0.7,0-1.4-0.1-2-0.3
		c-0.6-0.2-1.1-0.4-1.5-0.6l0.7-1.9c0.3,0.2,0.7,0.3,1.2,0.5c0.5,0.2,1,0.3,1.6,0.3c0.4,0,0.7-0.1,0.9-0.2
		C125.3,15.6,125.4,15.3,125.4,15z"/>
	<path fill="#FFFFFF" d="M23.2,24h5.4v1h-4.2v3.2h3.8v1h-3.8v3.5h4.3v1h-5.4V24z"/>
	<path fill="#FFFFFF" d="M36.7,24h1.1v6.6c0,0.6-0.1,1.1-0.2,1.5c-0.2,0.4-0.4,0.8-0.7,1.1c-0.3,0.3-0.6,0.5-1,0.6s-0.8,0.2-1.3,0.2
		c-1.2,0-2-0.3-2.6-0.8c-0.6-0.5-0.9-1.3-0.9-2.4V24h1.2v6.2c0,0.5,0,0.9,0.1,1.3c0.1,0.3,0.2,0.6,0.4,0.8s0.4,0.4,0.7,0.5
		c0.3,0.1,0.6,0.1,1,0.1c0.8,0,1.3-0.2,1.6-0.6c0.3-0.4,0.5-1.1,0.5-2.1V24z"/>
	<path fill="#FFFFFF" d="M40.6,24.1c0.4-0.1,0.8-0.1,1.2-0.2c0.5,0,0.9-0.1,1.3-0.1c0.4,0,0.8,0,1.2,0.1c0.4,0.1,0.7,0.2,1,0.5
		c0.3,0.2,0.5,0.5,0.7,0.8c0.2,0.3,0.3,0.8,0.3,1.3c0,0.8-0.2,1.4-0.6,1.9c-0.4,0.5-1,0.8-1.6,1l0.7,0.5l2.4,3.9h-1.4l-2.7-4.2
		l-1.4-0.2v4.5h-1.2V24.1z M43.1,24.9c-0.1,0-0.2,0-0.4,0c-0.1,0-0.3,0-0.4,0c-0.1,0-0.2,0-0.3,0c-0.1,0-0.2,0-0.3,0v3.6h1.1
		c0.6,0,1.2-0.2,1.6-0.5c0.4-0.3,0.6-0.8,0.6-1.5c0-0.5-0.2-0.9-0.5-1.3C44.2,25,43.7,24.9,43.1,24.9z"/>
	<path fill="#FFFFFF" d="M48.3,28.9c0-1.6,0.3-2.9,1-3.8c0.7-0.9,1.7-1.3,3-1.3c0.7,0,1.3,0.1,1.8,0.4c0.5,0.2,0.9,0.6,1.3,1
		c0.3,0.4,0.6,1,0.7,1.6c0.2,0.6,0.2,1.3,0.2,2.1c0,1.6-0.3,2.9-1,3.8c-0.7,0.9-1.7,1.3-3,1.3c-0.7,0-1.3-0.1-1.8-0.4
		c-0.5-0.2-0.9-0.6-1.3-1c-0.3-0.4-0.6-1-0.7-1.6C48.3,30.4,48.3,29.7,48.3,28.9z M49.5,28.9c0,0.5,0.1,1.1,0.2,1.5
		c0.1,0.5,0.3,0.9,0.5,1.3c0.2,0.4,0.5,0.7,0.9,0.9c0.4,0.2,0.8,0.3,1.2,0.3c0.9,0,1.6-0.3,2.1-1c0.5-0.7,0.7-1.7,0.7-3.1
		c0-0.5-0.1-1-0.2-1.5c-0.1-0.5-0.3-0.9-0.5-1.3c-0.2-0.4-0.5-0.7-0.9-0.9c-0.4-0.2-0.8-0.3-1.3-0.3c-0.9,0-1.5,0.3-2,1
		C49.7,26.5,49.5,27.5,49.5,28.9z"/>
	<path fill="#FFFFFF" d="M58.6,24.1c0.4-0.1,0.7-0.1,1.2-0.2c0.4,0,0.8,0,1.2,0c0.4,0,0.9,0,1.3,0.1s0.9,0.2,1.2,0.5
		c0.4,0.2,0.7,0.5,0.9,0.9c0.2,0.4,0.3,0.9,0.3,1.5c0,0.6-0.1,1.1-0.3,1.5c-0.2,0.4-0.5,0.7-0.9,1c-0.4,0.3-0.8,0.4-1.2,0.6
		c-0.5,0.1-0.9,0.2-1.4,0.2c0,0-0.1,0-0.2,0s-0.2,0-0.3,0c-0.1,0-0.2,0-0.3,0c-0.1,0-0.2,0-0.2,0v3.7h-1.2V24.1z M61,24.9
		c-0.2,0-0.5,0-0.7,0c-0.2,0-0.4,0-0.5,0.1V29c0,0,0.1,0,0.2,0c0.1,0,0.2,0,0.3,0c0.1,0,0.2,0,0.3,0c0.1,0,0.2,0,0.2,0
		c0.3,0,0.6,0,0.9-0.1c0.3-0.1,0.6-0.2,0.9-0.3c0.3-0.2,0.5-0.4,0.6-0.7c0.2-0.3,0.2-0.7,0.2-1.1c0-0.4-0.1-0.7-0.2-1
		c-0.1-0.3-0.3-0.5-0.6-0.6c-0.2-0.2-0.5-0.3-0.8-0.3C61.6,24.9,61.3,24.9,61,24.9z"/>
	<path fill="#FFFFFF" d="M66.8,24h5.4v1H68v3.2h3.8v1H68v3.5h4.3v1h-5.4V24z"/>
</g>
<g>
	<circle fill="#FFCC00" cx="15.3" cy="13.9" r="4.4"/>
	<circle fill="#FFCC00" cx="4.4" cy="13.7" r="4.4"/>
	<circle fill="#FFCC00" cx="10.1" cy="4.4" r="4.4"/>
</g>
</svg>
