<?xml version="1.0" encoding="utf-8"?>
<!-- Generator: Adobe Illustrator 18.1.1, SVG Export Plug-In . SVG Version: 6.00 Build 0)  -->
<svg version="1.1" id="Layer_1" xmlns="http://www.w3.org/2000/svg" xmlns:xlink="http://www.w3.org/1999/xlink" x="0px" y="0px"
	 width="68px" height="208px" viewBox="0 0 68 208" enable-background="new 0 0 68 208" xml:space="preserve">
<g>
	<circle fill="#999999" cx="16" cy="84" r="16"/>
	<path id="twitter-icon" fill="#FFFFFF" d="M25.9,77.8c-0.7,0.3-1.6,0.6-2.3,0.7c0.8-0.6,1.6-1.3,1.8-2.3c-0.8,0.4-1.7,0.8-2.5,1
		c-0.7-0.8-1.8-1.3-3-1.3c-2.7,0-4.5,2.4-4,5c-3.4-0.1-6.4-1.8-8.4-4.2c-1.1,1.8-0.6,4.2,1.3,5.4c-0.7,0-1.3-0.1-1.8-0.6
		c0,1.8,1.3,3.7,3.3,4.1c-0.6,0.1-1.1,0.1-1.8,0c0.6,1.6,2,2.8,3.8,2.8c-1.7,1.3-3.8,2-6.1,1.7c1.8,1.1,4,1.8,6.2,1.8
		c7.5,0,11.8-6.4,11.6-12C24.6,79.3,25.3,78.5,25.9,77.8z"/>
</g>
<g>
	<circle fill="#006FB4" cx="52" cy="84" r="16"/>
	<path id="twitter-icon_1_" fill="#FFFFFF" d="M61.9,77.8c-0.7,0.3-1.6,0.6-2.3,0.7c0.8-0.6,1.6-1.3,1.8-2.3c-0.8,0.4-1.7,0.8-2.5,1
		c-0.7-0.8-1.8-1.3-3-1.3c-2.7,0-4.5,2.4-4,5c-3.4-0.1-6.4-1.8-8.4-4.2c-1.1,1.8-0.6,4.2,1.3,5.4c-0.7,0-1.3-0.1-1.8-0.6
		c0,1.8,1.3,3.7,3.3,4.1c-0.6,0.1-1.1,0.1-1.8,0c0.6,1.6,2,2.8,3.8,2.8c-1.7,1.3-3.8,2-6.1,1.7c1.8,1.1,4,1.8,6.2,1.8
		c7.5,0,11.8-6.4,11.6-12C60.6,79.3,61.3,78.5,61.9,77.8z"/>
</g>
<g>
	<circle fill="#999999" cx="16" cy="120" r="16"/>
	<path id="linkedin-icon" fill="#FFFFFF" d="M11.7,112.6c0,1.2-0.9,2.1-2.1,2.1c-1.1,0-2.1-0.9-2.1-2.1c0-1.2,0.9-2.1,2.1-2.1
		C10.7,110.5,11.7,111.4,11.7,112.6z M11.4,116.2H7.9v11.3h3.5V116.2z M17,116.2h-3.4v11.3H17c0,0,0-4.2,0-5.9
		c0-1.6,0.7-2.5,2.1-2.5c1.3,0,1.9,0.9,1.9,2.5s0,5.9,0,5.9h3.5c0,0,0-4.1,0-7.2c0-3-1.7-4.5-4.1-4.5c-2.4,0-3.4,1.9-3.4,1.9V116.2
		L17,116.2z"/>
</g>
<g>
	<circle fill="#006FB4" cx="52" cy="120" r="16"/>
	<path id="linkedin-icon_1_" fill="#FFFFFF" d="M47.7,112.6c0,1.2-0.9,2.1-2.1,2.1c-1.1,0-2.1-0.9-2.1-2.1c0-1.2,0.9-2.1,2.1-2.1
		C46.7,110.5,47.7,111.4,47.7,112.6z M47.4,116.2h-3.5v11.3h3.5V116.2z M53,116.2h-3.4v11.3H53c0,0,0-4.2,0-5.9
		c0-1.6,0.7-2.5,2.1-2.5c1.3,0,1.9,0.9,1.9,2.5s0,5.9,0,5.9h3.5c0,0,0-4.1,0-7.2c0-3-1.7-4.5-4.1-4.5c-2.4,0-3.4,1.9-3.4,1.9V116.2
		L53,116.2z"/>
</g>
<g>
	<circle fill="#999999" cx="16" cy="156" r="16"/>
	<g>
		<path fill="#FFFFFF" d="M23.3,149.6c0.6,0,1.2,0.1,1.7,0.2c0.5,0.1,0.9,0.3,1.3,0.5c0.4,0.2,0.6,0.6,0.8,1s0.3,0.9,0.3,1.5
			s-0.1,1.2-0.4,1.6c-0.3,0.4-0.7,0.8-1.3,1.1c0.8,0.2,1.4,0.6,1.8,1.2c0.4,0.6,0.6,1.2,0.6,2c0,0.6-0.1,1.2-0.4,1.7
			c-0.3,0.5-0.6,0.9-1,1.2s-0.9,0.5-1.4,0.7c-0.5,0.1-1.1,0.2-1.7,0.2h-6.2v-12.8L23.3,149.6L23.3,149.6z M22.9,154.8
			c0.5,0,0.9-0.1,1.2-0.4c0.3-0.2,0.5-0.6,0.5-1.2c0-0.3-0.1-0.5-0.2-0.7c-0.1-0.2-0.3-0.3-0.4-0.4c-0.2-0.1-0.4-0.2-0.6-0.2
			c-0.2,0-0.5-0.1-0.7-0.1h-2.6v3L22.9,154.8L22.9,154.8z M23.1,160.2c0.3,0,0.5,0,0.8-0.1s0.5-0.1,0.7-0.3c0.2-0.1,0.3-0.3,0.5-0.5
			c0.1-0.2,0.2-0.5,0.2-0.8c0-0.7-0.2-1.1-0.6-1.4c-0.4-0.3-0.9-0.4-1.5-0.4h-3.1v3.5H23.1z"/>
		<path fill="#FFFFFF" d="M13.4,159c-0.2,0.5-0.4,0.8-0.7,1.2c-0.3,0.3-0.7,0.6-1.1,0.8c-0.4,0.2-0.9,0.3-1.5,0.3
			c-0.8,0-1.4-0.1-2-0.4c-0.5-0.3-1-0.7-1.4-1.2s-0.6-1-0.8-1.7c-0.2-0.6-0.3-1.3-0.3-2.1c0-0.7,0.1-1.3,0.3-1.9
			c0.2-0.6,0.4-1.2,0.8-1.7c0.4-0.5,0.8-0.9,1.3-1.2s1.2-0.4,2-0.4c0.9,0,1.7,0.2,2.3,0.7s1.1,1.1,1.3,2c0.5-0.1,1.1-0.3,1.6-0.4
			c-0.1-0.5-0.3-1-0.5-1.4c-0.3-0.5-0.7-1-1.2-1.3s-1-0.6-1.6-0.8s-1.2-0.3-1.9-0.3c-1,0-1.8,0.2-2.6,0.5c-0.8,0.4-1.4,0.8-1.9,1.4
			c-0.5,0.6-0.9,1.3-1.2,2.1s-0.4,1.7-0.4,2.6s0.1,1.8,0.4,2.6c0.2,0.8,0.6,1.5,1.1,2.1s1.1,1.1,1.8,1.4c0.7,0.3,1.6,0.5,2.6,0.5
			c1.6,0,2.9-0.4,3.9-1.3c0.8-0.8,1.3-1.8,1.6-3.1l-1.6-0.4C13.6,158.3,13.5,158.7,13.4,159z"/>
	</g>
</g>
<g>
	<circle fill="#006FB4" cx="52" cy="156" r="16"/>
	<g>
		<path fill="#FFFFFF" d="M59.3,149.6c0.6,0,1.2,0.1,1.7,0.2c0.5,0.1,0.9,0.3,1.3,0.5c0.4,0.2,0.6,0.6,0.8,1s0.3,0.9,0.3,1.5
			s-0.1,1.2-0.4,1.6c-0.3,0.4-0.7,0.8-1.3,1.1c0.8,0.2,1.4,0.6,1.8,1.2c0.4,0.6,0.6,1.2,0.6,2c0,0.6-0.1,1.2-0.4,1.7
			c-0.3,0.5-0.6,0.9-1,1.2s-0.9,0.5-1.4,0.7c-0.5,0.1-1.1,0.2-1.7,0.2h-6.2v-12.8L59.3,149.6L59.3,149.6z M58.9,154.8
			c0.5,0,0.9-0.1,1.2-0.4c0.3-0.2,0.5-0.6,0.5-1.2c0-0.3-0.1-0.5-0.2-0.7c-0.1-0.2-0.3-0.3-0.4-0.4c-0.2-0.1-0.4-0.2-0.6-0.2
			c-0.2,0-0.5-0.1-0.7-0.1h-2.6v3L58.9,154.8L58.9,154.8z M59.1,160.2c0.3,0,0.5,0,0.8-0.1s0.5-0.1,0.7-0.3c0.2-0.1,0.3-0.3,0.5-0.5
			c0.1-0.2,0.2-0.5,0.2-0.8c0-0.7-0.2-1.1-0.6-1.4c-0.4-0.3-0.9-0.4-1.5-0.4h-3.1v3.5H59.1z"/>
		<path fill="#FFFFFF" d="M49.4,159c-0.2,0.5-0.4,0.8-0.7,1.2c-0.3,0.3-0.7,0.6-1.1,0.8c-0.4,0.2-0.9,0.3-1.5,0.3
			c-0.8,0-1.4-0.1-2-0.4c-0.5-0.3-1-0.7-1.4-1.2s-0.6-1-0.8-1.7c-0.2-0.6-0.3-1.3-0.3-2.1c0-0.7,0.1-1.3,0.3-1.9
			c0.2-0.6,0.4-1.2,0.8-1.7c0.4-0.5,0.8-0.9,1.3-1.2s1.2-0.4,2-0.4c0.9,0,1.7,0.2,2.3,0.7s1.1,1.1,1.3,2c0.5-0.1,1.1-0.3,1.6-0.4
			c-0.1-0.5-0.3-1-0.5-1.4c-0.3-0.5-0.7-1-1.2-1.3s-1-0.6-1.6-0.8s-1.2-0.3-1.9-0.3c-1,0-1.8,0.2-2.6,0.5c-0.8,0.4-1.4,0.8-1.9,1.4
			c-0.5,0.6-0.9,1.3-1.2,2.1s-0.4,1.7-0.4,2.6s0.1,1.8,0.4,2.6c0.2,0.8,0.6,1.5,1.1,2.1s1.1,1.1,1.8,1.4c0.7,0.3,1.6,0.5,2.6,0.5
			c1.6,0,2.9-0.4,3.9-1.3c0.8-0.8,1.3-1.8,1.6-3.1l-1.6-0.4C49.6,158.3,49.5,158.7,49.4,159z"/>
	</g>
</g>
<g>
	<circle fill="#999999" cx="16" cy="192" r="16"/>
	<g>
		<g>
			<path fill="#FFFFFF" d="M14.2,183.3c-0.2-0.6-0.5-1.5-1-1.8c-0.4-0.2-0.8,0-1,0.3c-0.4,0.7,0,1.9,0.2,2.6
				c0.5,1.8,1.3,3.6,1.8,5.2c0.4-0.3,1.4-0.2,2.1-0.1C15.7,187.5,15,185.3,14.2,183.3z M22.1,184.7c0.2-0.6,0.5-1.2,0.5-1.9
				c0-0.5-0.3-0.8-0.8-0.8c-0.7,0-1.1,1.1-1.3,1.7c-0.8,2-1.5,4.1-2.1,6.1c0.7,0.1,1.3,0.2,2,0.3C20.9,188.5,21.6,186.5,22.1,184.7z
				 M12.2,198.9c0.5,0.2,1.2,0,1.2-0.4c0.1-0.5-0.3-0.9-0.5-1.1c-0.5-0.8-0.8-1.2-1.4-1.8c-0.3-0.3-0.6-0.7-1-0.7
				c-0.6-0.1-1.1,0.6-1.3,1c-0.6,1,0,2.4,0.5,3.3c1.2,1.9,3.1,3.5,6.1,3.5c2.6,0,4.3-1.3,5.4-2.7c1.2-1.5,2-3.7,1.8-6.3
				c0-0.5-0.1-1-0.4-1.5c-0.5-0.7-1.8-1.1-3-1.3c-0.6-0.1-1.2-0.2-1.9-0.3c-0.9-0.1-2.4-0.3-2.8,0.2c-0.4,0.5-0.1,1.2,0.1,1.4
				c0.6,1,2.6,1.2,4.2,1.2c0.8,0,2-0.2,1.9,0.6c-0.1,0.4-1,0.6-1.5,0.8s-1,0.6-1.4,0.9c-0.7,0.6-1.6,1.6-1.6,2.9
				c-0.1,1.2,0.5,1.5,0.4,2.7c-1.2-0.2-1.4-1.5-1.5-2.9c-0.3,0.1-0.7,0.1-1,0.1c0.5,1.7-1.3,2.4-2.6,1.8c-0.5-0.2-1-0.7-1.4-1.2
				s-0.8-1.3-0.4-1.9C10.7,197.4,11.2,198.6,12.2,198.9z M11.1,192.3c0,0.6,0.4,1.2,0.6,1.6c0.6,1,1.1,1.7,1.9,2.5
				c0.3,0.3,0.9,0.9,1.4,0.8c0.3,0,0.6-0.4,0.6-0.6c0.1-0.5-0.3-1.1-0.5-1.6c-0.4-0.9-0.9-1.9-1.4-2.7c-0.4-0.5-0.8-1.1-1.5-1
				C11.8,191.3,11.1,191.8,11.1,192.3z M16.5,195.8c0.5-0.6,1-1,1.6-1.5c-0.9,0-1.7-0.3-2.4-0.4C16.1,194.5,16.3,195.1,16.5,195.8z"
				/>
		</g>
	</g>
</g>
<g>
	<circle fill="#006FB4" cx="52" cy="192" r="16"/>
	<g>
		<g>
			<path fill="#FFFFFF" d="M50.2,183.3c-0.2-0.6-0.5-1.5-1-1.8c-0.4-0.2-0.8,0-1,0.3c-0.4,0.7,0,1.9,0.2,2.6
				c0.5,1.8,1.3,3.6,1.8,5.2c0.4-0.3,1.4-0.2,2.1-0.1C51.7,187.5,51,185.3,50.2,183.3z M58.1,184.7c0.2-0.6,0.5-1.2,0.5-1.9
				c0-0.5-0.3-0.8-0.8-0.8c-0.7,0-1.1,1.1-1.3,1.7c-0.8,2-1.5,4.1-2.1,6.1c0.7,0.1,1.3,0.2,2,0.3C56.9,188.5,57.6,186.5,58.1,184.7z
				 M48.2,198.9c0.5,0.2,1.2,0,1.2-0.4c0.1-0.5-0.3-0.9-0.5-1.1c-0.5-0.8-0.8-1.2-1.4-1.8c-0.3-0.3-0.6-0.7-1-0.7
				c-0.6-0.1-1.1,0.6-1.3,1c-0.6,1,0,2.4,0.5,3.3c1.2,1.9,3.1,3.5,6.1,3.5c2.6,0,4.3-1.3,5.4-2.7c1.2-1.5,2-3.7,1.8-6.3
				c0-0.5-0.1-1-0.4-1.5c-0.5-0.7-1.8-1.1-3-1.3c-0.6-0.1-1.2-0.2-1.9-0.3c-0.9-0.1-2.4-0.3-2.8,0.2c-0.4,0.5-0.1,1.2,0.1,1.4
				c0.6,1,2.6,1.2,4.2,1.2c0.8,0,2-0.2,1.9,0.6c-0.1,0.4-1,0.6-1.5,0.8s-1,0.6-1.4,0.9c-0.7,0.6-1.6,1.6-1.6,2.9
				c-0.1,1.2,0.5,1.5,0.4,2.7c-1.2-0.2-1.4-1.5-1.5-2.9c-0.3,0.1-0.7,0.1-1,0.1c0.5,1.7-1.3,2.4-2.6,1.8c-0.5-0.2-1-0.7-1.4-1.2
				s-0.8-1.3-0.4-1.9C46.7,197.4,47.2,198.6,48.2,198.9z M47.1,192.3c0,0.6,0.4,1.2,0.6,1.6c0.6,1,1.1,1.7,1.9,2.5
				c0.3,0.3,0.9,0.9,1.4,0.8c0.3,0,0.6-0.4,0.6-0.6c0.1-0.5-0.3-1.1-0.5-1.6c-0.4-0.9-0.9-1.9-1.4-2.7c-0.4-0.5-0.8-1.1-1.5-1
				C47.8,191.3,47.1,191.8,47.1,192.3z M52.5,195.8c0.5-0.6,1-1,1.6-1.5c-0.9,0-1.7-0.3-2.4-0.4C52.1,194.5,52.3,195.1,52.5,195.8z"
				/>
		</g>
	</g>
</g>
<g>
	<circle fill="#EEEEEE" cx="8" cy="44" r="8"/>
	<polygon id="arrow-25-icon_4_" fill="#006FB4" points="12,41 13,42 8,47 3,42 4,41 8,45 	"/>
</g>
<g>
	<circle fill="#006FB4" cx="28" cy="44" r="8"/>
	<polygon id="arrow-25-icon_1_" fill="#FFFFFF" points="24,47 23,46 28,41 33,46 32,47 28,43 	"/>
</g>
<g>
	<path fill="#006FB4" d="M10,0C4.5,0,0,4.3,0,9.6S10,32,10,32S20,14.9,20,9.6S15.5,0,10,0z"/>
	<circle fill="#FFFFFF" cx="10" cy="9.3" r="4.5"/>
</g>
<g>
	<path fill="#07599E" d="M34,0c-5.5,0-10,4.3-10,9.6S34,32,34,32S44,14.9,44,9.6S39.5,0,34,0z"/>
	<g display="none">
		<circle display="inline" fill="#FFFFFF" cx="34" cy="5.7" r="2.7"/>
		<circle display="inline" fill="#FFFFFF" cx="30.4" cy="12.1" r="2.7"/>
		<circle display="inline" fill="#FFFFFF" cx="37.5" cy="12.1" r="2.7"/>
	</g>
</g>
<polygon id="x-mark-icon" fill="#0072CF" points="1.5,66 5,62.5 8.5,66 10,64.5 6.5,61 10,57.5 8.5,56 5,59.5 1.5,56 0,57.5 3.5,61 
	0,64.5 "/>
<polygon id="x-mark-icon_1_" fill="#06589E" points="13.5,66 17,62.5 20.5,66 22,64.5 18.5,61 22,57.5 20.5,56 17,59.5 13.5,56 
	12,57.5 15.5,61 12,64.5 "/>
<polygon id="x-mark-icon_2_" fill="#FFFFFF" points="27.5,66 31,62.5 34.5,66 36,64.5 32.5,61 36,57.5 34.5,56 31,59.5 27.5,56 
	26,57.5 29.5,61 26,64.5 "/>
<polygon fill="#999999" points="61.9,0 49.9,12.1 48,18 54,16.2 66,4.2 "/>
<path id="magnifier-2-icon" fill="#999999" d="M66,38.3l-4.7-4.7c0.9-1.2,1.4-2.7,1.4-4.3c0-4.1-3.3-7.3-7.4-7.3S48,25.3,48,29.3
	c0,4.1,3.3,7.3,7.4,7.3c1.5,0,3-0.5,4.2-1.3l4.7,4.7L66,38.3z M50.2,29.4c0-2.9,2.4-5.2,5.2-5.2c2.9,0,5.2,2.3,5.2,5.2
	c0,2.9-2.4,5.2-5.2,5.2C52.6,34.6,50.2,32.2,50.2,29.4z"/>
<polygon fill="#178817" points="49.5,54 44,64 49.5,64 55,64 "/>
<polygon fill="#CD171C" points="61.5,64 67,54 61.5,54 56,54 "/>
</svg>
