<?xml version="1.0" encoding="utf-8"?>
<!-- Generator: Adobe Illustrator 18.1.1, SVG Export Plug-In . SVG Version: 6.00 Build 0)  -->
<!DOCTYPE svg PUBLIC "-//W3C//DTD SVG 1.1//EN" "http://www.w3.org/Graphics/SVG/1.1/DTD/svg11.dtd">
<svg version="1.1" id="Layer_1" xmlns="http://www.w3.org/2000/svg" xmlns:xlink="http://www.w3.org/1999/xlink" x="0px" y="0px"
	 width="32px" height="32px" viewBox="551.2 134.2 32 32" enable-background="new 551.2 134.2 32 32" xml:space="preserve">
<circle fill="#006FB4" cx="567.2" cy="150.2" r="16"/>
<g>
	<g>
		<path fill="#FFFFFF" d="M565.4,141.5c-0.2-0.6-0.5-1.5-1-1.8c-0.4-0.2-0.8,0-1,0.3c-0.4,0.7,0,1.9,0.2,2.6
			c0.5,1.8,1.3,3.6,1.8,5.2c0.4-0.3,1.4-0.2,2.1-0.1C566.9,145.7,566.2,143.5,565.4,141.5z M573.3,142.9c0.2-0.6,0.5-1.2,0.5-1.9
			c0-0.5-0.3-0.8-0.8-0.8c-0.7,0-1.1,1.1-1.3,1.7c-0.8,2-1.5,4.1-2.1,6.1c0.7,0.1,1.3,0.2,2,0.3
			C572.1,146.7,572.8,144.7,573.3,142.9z M563.4,157.1c0.5,0.2,1.2,0,1.2-0.4c0.1-0.5-0.3-0.9-0.5-1.1c-0.5-0.8-0.8-1.2-1.4-1.8
			c-0.3-0.3-0.6-0.7-1-0.7c-0.6-0.1-1.1,0.6-1.3,1c-0.6,1,0,2.4,0.5,3.3c1.2,1.9,3.1,3.5,6.1,3.5c2.6,0,4.3-1.3,5.4-2.7
			c1.2-1.5,2-3.7,1.8-6.3c0-0.5-0.1-1-0.4-1.5c-0.5-0.7-1.8-1.1-3-1.3c-0.6-0.1-1.2-0.2-1.9-0.3c-0.9-0.1-2.4-0.3-2.8,0.2
			c-0.4,0.5-0.1,1.2,0.1,1.4c0.6,1,2.6,1.2,4.2,1.2c0.8,0,2-0.2,1.9,0.6c-0.1,0.4-1,0.6-1.5,0.8c-0.5,0.2-1,0.6-1.4,0.9
			c-0.7,0.6-1.6,1.6-1.6,2.9c-0.1,1.2,0.5,1.5,0.4,2.7c-1.2-0.2-1.4-1.5-1.5-2.9c-0.3,0.1-0.7,0.1-1,0.1c0.5,1.7-1.3,2.4-2.6,1.8
			c-0.5-0.2-1-0.7-1.4-1.2c-0.4-0.5-0.8-1.3-0.4-1.9C561.9,155.6,562.4,156.8,563.4,157.1z M562.3,150.5c0,0.6,0.4,1.2,0.6,1.6
			c0.6,1,1.1,1.7,1.9,2.5c0.3,0.3,0.9,0.9,1.4,0.8c0.3,0,0.6-0.4,0.6-0.6c0.1-0.5-0.3-1.1-0.5-1.6c-0.4-0.9-0.9-1.9-1.4-2.7
			c-0.4-0.5-0.8-1.1-1.5-1C563,149.5,562.3,150,562.3,150.5z M567.7,154c0.5-0.6,1-1,1.6-1.5c-0.9,0-1.7-0.3-2.4-0.4
			C567.3,152.7,567.5,153.3,567.7,154z"/>
	</g>
</g>
</svg>
