<?xml version="1.0" encoding="utf-8"?>
<!-- Generator: Adobe Illustrator 18.1.1, SVG Export Plug-In . SVG Version: 6.00 Build 0)  -->
<!DOCTYPE svg PUBLIC "-//W3C//DTD SVG 1.1//EN" "http://www.w3.org/Graphics/SVG/1.1/DTD/svg11.dtd">
<svg version="1.1" id="Layer_1" xmlns="http://www.w3.org/2000/svg" xmlns:xlink="http://www.w3.org/1999/xlink" x="0px" y="0px"
	 width="32px" height="32px" viewBox="596.6 134.2 32 32" enable-background="new 596.6 134.2 32 32" xml:space="preserve">
<circle fill="#006FB4" cx="612.6" cy="150.2" r="16"/>
<g>
	<path fill="#FFFFFF" d="M619.9,143.8c0.6,0,1.2,0.1,1.7,0.2c0.5,0.1,0.9,0.3,1.3,0.5c0.4,0.2,0.6,0.6,0.8,1
		c0.2,0.4,0.3,0.9,0.3,1.5c0,0.6-0.1,1.2-0.4,1.6c-0.3,0.4-0.7,0.8-1.3,1.1c0.8,0.2,1.4,0.6,1.8,1.2c0.4,0.6,0.6,1.2,0.6,2
		c0,0.6-0.1,1.2-0.4,1.7c-0.3,0.5-0.6,0.9-1,1.2c-0.4,0.3-0.9,0.5-1.4,0.7c-0.5,0.1-1.1,0.2-1.7,0.2h-6.2v-12.8H619.9z M619.5,149
		c0.5,0,0.9-0.1,1.2-0.4c0.3-0.2,0.5-0.6,0.5-1.2c0-0.3-0.1-0.5-0.2-0.7c-0.1-0.2-0.3-0.3-0.4-0.4c-0.2-0.1-0.4-0.2-0.6-0.2
		c-0.2,0-0.5-0.1-0.7-0.1h-2.6v3H619.5z M619.7,154.4c0.3,0,0.5,0,0.8-0.1c0.3-0.1,0.5-0.1,0.7-0.3c0.2-0.1,0.3-0.3,0.5-0.5
		c0.1-0.2,0.2-0.5,0.2-0.8c0-0.7-0.2-1.1-0.6-1.4c-0.4-0.3-0.9-0.4-1.5-0.4h-3.1v3.5H619.7z"/>
	<path fill="#FFFFFF" d="M610,153.2c-0.2,0.5-0.4,0.8-0.7,1.2c-0.3,0.3-0.7,0.6-1.1,0.8c-0.4,0.2-0.9,0.3-1.5,0.3
		c-0.8,0-1.4-0.1-2-0.4c-0.5-0.3-1-0.7-1.4-1.2c-0.4-0.5-0.6-1-0.8-1.7c-0.2-0.6-0.3-1.3-0.3-2.1c0-0.7,0.1-1.3,0.3-1.9
		c0.2-0.6,0.4-1.2,0.8-1.7c0.4-0.5,0.8-0.9,1.3-1.2c0.5-0.3,1.2-0.4,2-0.4c0.9,0,1.7,0.2,2.3,0.7c0.6,0.5,1.1,1.1,1.3,2
		c0.5-0.1,1.1-0.3,1.6-0.4c-0.1-0.5-0.3-1-0.5-1.4c-0.3-0.5-0.7-1-1.2-1.3c-0.5-0.3-1-0.6-1.6-0.8c-0.6-0.2-1.2-0.3-1.9-0.3
		c-1,0-1.8,0.2-2.6,0.5c-0.8,0.4-1.4,0.8-1.9,1.4c-0.5,0.6-0.9,1.3-1.2,2.1c-0.3,0.8-0.4,1.7-0.4,2.6s0.1,1.8,0.4,2.6
		c0.2,0.8,0.6,1.5,1.1,2.1c0.5,0.6,1.1,1.1,1.8,1.4c0.7,0.3,1.6,0.5,2.6,0.5c1.6,0,2.9-0.4,3.9-1.3c0.8-0.8,1.3-1.8,1.6-3.1
		l-1.6-0.4C610.2,152.5,610.1,152.9,610,153.2z"/>
</g>
</svg>
