<?xml version="1.0" encoding="utf-8"?>
<!-- Generator: Adobe Illustrator 18.1.1, SVG Export Plug-In . SVG Version: 6.00 Build 0)  -->
<!DOCTYPE svg PUBLIC "-//W3C//DTD SVG 1.1//EN" "http://www.w3.org/Graphics/SVG/1.1/DTD/svg11.dtd">
<svg version="1.1" id="Layer_1" xmlns="http://www.w3.org/2000/svg" xmlns:xlink="http://www.w3.org/1999/xlink" x="0px" y="0px"
	 width="32px" height="32px" viewBox="505.8 134.2 32 32" enable-background="new 505.8 134.2 32 32" xml:space="preserve">
<circle fill="#999999" cx="521.8" cy="150.2" r="16"/>
<path id="linkedin-icon" fill="#FFFFFF" d="M517.5,142.8c0,1.2-0.9,2.1-2.1,2.1c-1.1,0-2.1-0.9-2.1-2.1c0-1.2,0.9-2.1,2.1-2.1
	C516.5,140.7,517.5,141.6,517.5,142.8z M517.2,146.4h-3.5v11.3h3.5V146.4z M522.8,146.4h-3.4v11.3h3.4c0,0,0-4.2,0-5.9
	c0-1.6,0.7-2.5,2.1-2.5c1.3,0,1.9,0.9,1.9,2.5s0,5.9,0,5.9h3.5c0,0,0-4.1,0-7.2c0-3-1.7-4.5-4.1-4.5c-2.4,0-3.4,1.9-3.4,1.9V146.4
	L522.8,146.4z"/>
</svg>
