<?xml version="1.0" encoding="utf-8"?>
<!-- Generator: Adobe Illustrator 18.1.1, SVG Export Plug-In . SVG Version: 6.00 Build 0)  -->
<!DOCTYPE svg PUBLIC "-//W3C//DTD SVG 1.1//EN" "http://www.w3.org/Graphics/SVG/1.1/DTD/svg11.dtd">
<svg version="1.1" id="Layer_1" xmlns="http://www.w3.org/2000/svg" xmlns:xlink="http://www.w3.org/1999/xlink" x="0px" y="0px"
	 width="32px" height="32px" viewBox="460.4 134.2 32 32" enable-background="new 460.4 134.2 32 32" xml:space="preserve">
<circle fill="#006FB4" cx="476.4" cy="150.2" r="16"/>
<path id="twitter-icon" fill="#FFFFFF" d="M486.3,144c-0.7,0.3-1.6,0.6-2.3,0.7c0.8-0.6,1.6-1.3,1.8-2.3c-0.8,0.4-1.7,0.8-2.5,1
	c-0.7-0.8-1.8-1.3-3-1.3c-2.7,0-4.5,2.4-4,5c-3.4-0.1-6.4-1.8-8.4-4.2c-1.1,1.8-0.6,4.2,1.3,5.4c-0.7,0-1.3-0.1-1.8-0.6
	c0,1.8,1.3,3.7,3.3,4.1c-0.6,0.1-1.1,0.1-1.8,0c0.6,1.6,2,2.8,3.8,2.8c-1.7,1.3-3.8,2-6.1,1.7c1.8,1.1,4,1.8,6.2,1.8
	c7.5,0,11.8-6.4,11.6-12C485,145.5,485.7,144.7,486.3,144z"/>
</svg>
